%
M48
M72
T01C0.0236
T02C0.0240
T03C0.0276
T04C0.0315
T05C0.0320
T06C0.0354
T07C0.0394
T08C0.0400
T09C0.0433
T10C0.1770
%
T01
X10220Y15220
X10720Y15720
X10220Y16220
T02
X23720Y12720
X23720Y10720
T03
X21220Y10720
X20220Y10720
X20220Y12220
X21220Y12220
X25220Y13736
X25220Y15704
X32720Y14704
X32720Y12736
X31720Y23236
X33220Y24220
X34220Y24220
X31720Y25204
X33220Y28220
X34220Y28220
T04
X30220Y26720
X29220Y26720
X28220Y26720
X27220Y26720
X26220Y26720
X25220Y26720
X32720Y20720
X41830Y26720
X43720Y27901
X55720Y20811
X55720Y19629
X55720Y15811
X55720Y14629
X55720Y10811
X55720Y9629
T05
X48720Y10720
X48220Y11470
X47720Y10720
X47720Y15720
X48720Y15720
X48220Y16470
X47720Y20720
X48720Y20720
X48220Y21470
X30220Y20720
X30220Y19720
X30220Y18720
X30220Y17720
X30220Y16720
X30220Y15720
X30220Y14720
X30220Y13720
X30220Y12720
X30220Y11720
X30220Y10720
X30220Y9720
X30220Y8720
X30220Y7720
X27220Y7720
X27220Y8720
X27220Y9720
X27220Y10720
X27220Y11720
X27220Y12720
X27220Y13720
X27220Y14720
X27220Y15720
X27220Y16720
X27220Y17720
X27220Y18720
X27220Y19720
X27220Y20720
X22220Y27470
X21720Y28220
X22720Y28220
X22720Y4720
X23720Y4720
X24720Y4720
X25720Y4720
X25720Y1720
X24720Y1720
X23720Y1720
X22720Y1720
T06
X15220Y3720
X15220Y5220
X15220Y6720
X11220Y6720
X11220Y5220
X11220Y3720
X13720Y9220
X15720Y9220
X15720Y11220
X13720Y11220
X20220Y13720
X20220Y17720
X15720Y19720
X13720Y19720
X13720Y21720
X15720Y21720
X25220Y22720
X25220Y18720
X34220Y22220
X38220Y22220
X40720Y21220
X44720Y21220
X46220Y19220
X50220Y19220
X44720Y16220
X40720Y16220
X46220Y14220
X50220Y14220
X44720Y11220
X40720Y11220
X46220Y9220
X50220Y9220
X35220Y5720
X35220Y4220
X31220Y4220
X31220Y5720
X15220Y28220
X11220Y28220
T07
X3236Y4736
X5204Y4736
X5204Y6704
X3236Y6704
X3236Y23736
X5204Y23736
X5204Y25704
X3236Y25704
X43720Y25539
T08
X36220Y25220
X36220Y26220
X36220Y27220
X34940Y20610
X37500Y20610
X37500Y18830
X34940Y18830
X39220Y8220
X39120Y7220
X39220Y6220
X39120Y5220
X39220Y4220
T09
X21980Y19720
X20720Y19720
X19460Y19720
X19460Y22720
X20720Y22720
X21980Y22720
T10
X18220Y26220
X18220Y4220
M30
