G75*
%MOIN*%
%OFA0B0*%
%FSLAX24Y24*%
%IPPOS*%
%LPD*%
%AMOC8*
5,1,8,0,0,1.08239X$1,22.5*
%
%ADD10C,0.1850*%
%ADD11C,0.0600*%
%ADD12OC8,0.0600*%
%ADD13C,0.0940*%
%ADD14C,0.0680*%
%ADD15R,0.0730X0.0730*%
%ADD16C,0.0730*%
%ADD17C,0.0634*%
%ADD18C,0.0820*%
%ADD19C,0.0520*%
%ADD20C,0.0940*%
%ADD21C,0.0516*%
%ADD22R,0.0780X0.0780*%
%ADD23C,0.0780*%
%ADD24C,0.0840*%
%ADD25R,0.0840X0.0840*%
D10*
X018220Y004220D03*
X018220Y026220D03*
D11*
X026960Y020720D02*
X027480Y020720D01*
X027480Y019720D02*
X026960Y019720D01*
X026960Y018720D02*
X027480Y018720D01*
X027480Y017720D02*
X026960Y017720D01*
X026960Y016720D02*
X027480Y016720D01*
X027480Y015720D02*
X026960Y015720D01*
X026960Y014720D02*
X027480Y014720D01*
X027480Y013720D02*
X026960Y013720D01*
X026960Y012720D02*
X027480Y012720D01*
X027480Y011720D02*
X026960Y011720D01*
X026960Y010720D02*
X027480Y010720D01*
X027480Y009720D02*
X026960Y009720D01*
X026960Y008720D02*
X027480Y008720D01*
X027480Y007720D02*
X026960Y007720D01*
X029960Y007720D02*
X030480Y007720D01*
X030480Y008720D02*
X029960Y008720D01*
X029960Y009720D02*
X030480Y009720D01*
X030480Y010720D02*
X029960Y010720D01*
X029960Y011720D02*
X030480Y011720D01*
X030480Y012720D02*
X029960Y012720D01*
X029960Y013720D02*
X030480Y013720D01*
X030480Y014720D02*
X029960Y014720D01*
X029960Y015720D02*
X030480Y015720D01*
X030480Y016720D02*
X029960Y016720D01*
X029960Y017720D02*
X030480Y017720D01*
X030480Y018720D02*
X029960Y018720D01*
X029960Y019720D02*
X030480Y019720D01*
X030480Y020720D02*
X029960Y020720D01*
X025720Y004980D02*
X025720Y004460D01*
X024720Y004460D02*
X024720Y004980D01*
X023720Y004980D02*
X023720Y004460D01*
X022720Y004460D02*
X022720Y004980D01*
X022720Y001980D02*
X022720Y001460D01*
X023720Y001460D02*
X023720Y001980D01*
X024720Y001980D02*
X024720Y001460D01*
X025720Y001460D02*
X025720Y001980D01*
D12*
X047720Y010720D03*
X048220Y011470D03*
X048720Y010720D03*
X048720Y015720D03*
X047720Y015720D03*
X048220Y016470D03*
X047720Y020720D03*
X048720Y020720D03*
X048220Y021470D03*
X022720Y028220D03*
X022220Y027470D03*
X021720Y028220D03*
D13*
X041830Y027150D02*
X041830Y026290D01*
X043290Y025539D02*
X044150Y025539D01*
X044150Y027901D02*
X043290Y027901D01*
D14*
X036520Y027220D02*
X035920Y027220D01*
X035920Y026220D02*
X036520Y026220D01*
X036520Y025220D02*
X035920Y025220D01*
X038920Y008220D02*
X039520Y008220D01*
X039420Y007220D02*
X038820Y007220D01*
X038920Y006220D02*
X039520Y006220D01*
X039420Y005220D02*
X038820Y005220D01*
X038920Y004220D02*
X039520Y004220D01*
D15*
X034220Y024220D03*
X034220Y028220D03*
D16*
X033220Y028220D03*
X031720Y025204D03*
X033220Y024220D03*
X031720Y023236D03*
X025220Y015704D03*
X025220Y013736D03*
X021220Y012220D03*
X020220Y012220D03*
X020220Y010720D03*
X021220Y010720D03*
X032720Y012736D03*
X032720Y014704D03*
D17*
X015720Y011220D03*
X013720Y011220D03*
X013720Y009220D03*
X015720Y009220D03*
X015720Y019720D03*
X013720Y019720D03*
X013720Y021720D03*
X015720Y021720D03*
D18*
X020220Y017720D03*
X025220Y018720D03*
X025220Y022720D03*
X034220Y022220D03*
X034940Y020610D03*
X037500Y020610D03*
X038220Y022220D03*
X040720Y021220D03*
X044720Y021220D03*
X046220Y019220D03*
X050220Y019220D03*
X044720Y016220D03*
X040720Y016220D03*
X037500Y018830D03*
X034940Y018830D03*
X046220Y014220D03*
X050220Y014220D03*
X044720Y011220D03*
X040720Y011220D03*
X046220Y009220D03*
X050220Y009220D03*
X035220Y005720D03*
X035220Y004220D03*
X031220Y004220D03*
X031220Y005720D03*
X020220Y013720D03*
X015220Y006720D03*
X015220Y005220D03*
X015220Y003720D03*
X011220Y003720D03*
X011220Y005220D03*
X011220Y006720D03*
X011220Y028220D03*
X015220Y028220D03*
D19*
X023500Y012720D02*
X023940Y012720D01*
X023940Y010720D02*
X023500Y010720D01*
D20*
X003236Y004736D03*
X005204Y004736D03*
X005204Y006704D03*
X003236Y006704D03*
X019460Y019720D03*
X020720Y019720D03*
X021980Y019720D03*
X021980Y022720D03*
X020720Y022720D03*
X019460Y022720D03*
X005204Y023736D03*
X003236Y023736D03*
X003236Y025704D03*
X005204Y025704D03*
D21*
X010220Y016220D03*
X010720Y015720D03*
X010220Y015220D03*
D22*
X055720Y014629D03*
X055720Y019629D03*
X055720Y009629D03*
D23*
X055720Y010811D03*
X055720Y015811D03*
X055720Y020811D03*
D24*
X030220Y026720D03*
X029220Y026720D03*
X028220Y026720D03*
X027220Y026720D03*
X026220Y026720D03*
X025220Y026720D03*
D25*
X032720Y020720D03*
M02*
