G75*
%MOIN*%
%OFA0B0*%
%FSLAX24Y24*%
%IPPOS*%
%LPD*%
%AMOC8*
5,1,8,0,0,1.08239X$1,22.5*
%
%ADD10C,0.0520*%
%ADD11OC8,0.0520*%
%ADD12C,0.0860*%
%ADD13C,0.0600*%
%ADD14R,0.0650X0.0650*%
%ADD15C,0.0650*%
%ADD16C,0.0554*%
%ADD17C,0.0740*%
%ADD18C,0.0440*%
%ADD19C,0.0860*%
%ADD20C,0.0436*%
%ADD21R,0.0700X0.0700*%
%ADD22C,0.0700*%
%ADD23C,0.0760*%
%ADD24C,0.0240*%
%ADD25C,0.0560*%
%ADD26R,0.0760X0.0760*%
D10*
X022720Y001460D02*
X022720Y001980D01*
X023720Y001980D02*
X023720Y001460D01*
X024720Y001460D02*
X024720Y001980D01*
X025720Y001980D02*
X025720Y001460D01*
X025720Y004460D02*
X025720Y004980D01*
X024720Y004980D02*
X024720Y004460D01*
X023720Y004460D02*
X023720Y004980D01*
X022720Y004980D02*
X022720Y004460D01*
X026960Y007720D02*
X027480Y007720D01*
X027480Y008720D02*
X026960Y008720D01*
X026960Y009720D02*
X027480Y009720D01*
X027480Y010720D02*
X026960Y010720D01*
X026960Y011720D02*
X027480Y011720D01*
X027480Y012720D02*
X026960Y012720D01*
X026960Y013720D02*
X027480Y013720D01*
X027480Y014720D02*
X026960Y014720D01*
X026960Y015720D02*
X027480Y015720D01*
X027480Y016720D02*
X026960Y016720D01*
X026960Y017720D02*
X027480Y017720D01*
X027480Y018720D02*
X026960Y018720D01*
X026960Y019720D02*
X027480Y019720D01*
X027480Y020720D02*
X026960Y020720D01*
X029960Y020720D02*
X030480Y020720D01*
X030480Y019720D02*
X029960Y019720D01*
X029960Y018720D02*
X030480Y018720D01*
X030480Y017720D02*
X029960Y017720D01*
X029960Y016720D02*
X030480Y016720D01*
X030480Y015720D02*
X029960Y015720D01*
X029960Y014720D02*
X030480Y014720D01*
X030480Y013720D02*
X029960Y013720D01*
X029960Y012720D02*
X030480Y012720D01*
X030480Y011720D02*
X029960Y011720D01*
X029960Y010720D02*
X030480Y010720D01*
X030480Y009720D02*
X029960Y009720D01*
X029960Y008720D02*
X030480Y008720D01*
X030480Y007720D02*
X029960Y007720D01*
D11*
X047720Y010720D03*
X048220Y011470D03*
X048720Y010720D03*
X048720Y015720D03*
X047720Y015720D03*
X048220Y016470D03*
X047720Y020720D03*
X048720Y020720D03*
X048220Y021470D03*
X022720Y028220D03*
X022220Y027470D03*
X021720Y028220D03*
D12*
X041830Y027150D02*
X041830Y026290D01*
X043290Y025539D02*
X044150Y025539D01*
X044150Y027901D02*
X043290Y027901D01*
D13*
X036520Y027220D02*
X035920Y027220D01*
X035920Y026220D02*
X036520Y026220D01*
X036520Y025220D02*
X035920Y025220D01*
X038920Y008220D02*
X039520Y008220D01*
X039420Y007220D02*
X038820Y007220D01*
X038920Y006220D02*
X039520Y006220D01*
X039420Y005220D02*
X038820Y005220D01*
X038920Y004220D02*
X039520Y004220D01*
D14*
X034220Y024220D03*
X034220Y028220D03*
D15*
X033220Y028220D03*
X031720Y025204D03*
X033220Y024220D03*
X031720Y023236D03*
X025220Y015704D03*
X025220Y013736D03*
X021220Y012220D03*
X020220Y012220D03*
X020220Y010720D03*
X021220Y010720D03*
X032720Y012736D03*
X032720Y014704D03*
D16*
X015720Y011220D03*
X013720Y011220D03*
X013720Y009220D03*
X015720Y009220D03*
X015720Y019720D03*
X013720Y019720D03*
X013720Y021720D03*
X015720Y021720D03*
D17*
X020220Y017720D03*
X025220Y018720D03*
X025220Y022720D03*
X034220Y022220D03*
X034940Y020610D03*
X037500Y020610D03*
X038220Y022220D03*
X040720Y021220D03*
X044720Y021220D03*
X046220Y019220D03*
X050220Y019220D03*
X044720Y016220D03*
X040720Y016220D03*
X037500Y018830D03*
X034940Y018830D03*
X046220Y014220D03*
X050220Y014220D03*
X044720Y011220D03*
X040720Y011220D03*
X046220Y009220D03*
X050220Y009220D03*
X035220Y005720D03*
X035220Y004220D03*
X031220Y004220D03*
X031220Y005720D03*
X020220Y013720D03*
X015220Y006720D03*
X015220Y005220D03*
X015220Y003720D03*
X011220Y003720D03*
X011220Y005220D03*
X011220Y006720D03*
X011220Y028220D03*
X015220Y028220D03*
D18*
X023500Y012720D02*
X023940Y012720D01*
X023940Y010720D02*
X023500Y010720D01*
D19*
X021980Y019720D03*
X020720Y019720D03*
X019460Y019720D03*
X019460Y022720D03*
X020720Y022720D03*
X021980Y022720D03*
X005204Y023736D03*
X003236Y023736D03*
X003236Y025704D03*
X005204Y025704D03*
X005204Y006704D03*
X003236Y006704D03*
X003236Y004736D03*
X005204Y004736D03*
D20*
X010220Y015220D03*
X010720Y015720D03*
X010220Y016220D03*
D21*
X055720Y014629D03*
X055720Y019629D03*
X055720Y009629D03*
D22*
X055720Y010811D03*
X055720Y015811D03*
X055720Y020811D03*
D23*
X030220Y026720D03*
X029220Y026720D03*
X028220Y026720D03*
X027220Y026720D03*
X026220Y026720D03*
X025220Y026720D03*
D24*
X000740Y029700D02*
X000740Y000740D01*
X057200Y000740D01*
X057200Y029700D01*
X034525Y029700D01*
X034537Y029695D01*
X034695Y029537D01*
X034780Y029331D01*
X034780Y028924D01*
X034794Y028918D01*
X034918Y028794D01*
X034924Y028780D01*
X035331Y028780D01*
X035537Y028695D01*
X035695Y028537D01*
X036272Y027960D01*
X036667Y027960D01*
X036939Y027847D01*
X037007Y027780D01*
X038831Y027780D01*
X039037Y027695D01*
X041452Y025280D01*
X042456Y025280D01*
X042420Y025366D01*
X042420Y025649D01*
X042323Y025552D01*
X042003Y025420D01*
X041657Y025420D01*
X041337Y025552D01*
X041093Y025797D01*
X040960Y026117D01*
X040960Y027323D01*
X041093Y027643D01*
X041337Y027888D01*
X041657Y028020D01*
X042003Y028020D01*
X042323Y027888D01*
X042568Y027643D01*
X042700Y027323D01*
X042700Y026179D01*
X042797Y026276D01*
X043117Y026409D01*
X044323Y026409D01*
X044643Y026276D01*
X044888Y026032D01*
X045020Y025712D01*
X045020Y025366D01*
X044888Y025046D01*
X044643Y024801D01*
X044323Y024669D01*
X043642Y024669D01*
X043280Y024307D01*
X043280Y019780D01*
X045634Y019780D01*
X045761Y019907D01*
X046059Y020030D01*
X046381Y020030D01*
X046679Y019907D01*
X046907Y019679D01*
X047030Y019381D01*
X047030Y019059D01*
X046907Y018761D01*
X046679Y018533D01*
X046381Y018410D01*
X046059Y018410D01*
X045761Y018533D01*
X045634Y018660D01*
X043280Y018660D01*
X043280Y014780D01*
X045634Y014780D01*
X045761Y014907D01*
X046059Y015030D01*
X046381Y015030D01*
X046679Y014907D01*
X046907Y014679D01*
X047030Y014381D01*
X047030Y014059D01*
X046907Y013761D01*
X046679Y013533D01*
X046381Y013410D01*
X046059Y013410D01*
X045761Y013533D01*
X045634Y013660D01*
X043280Y013660D01*
X043280Y010952D01*
X044452Y009780D01*
X045634Y009780D01*
X045761Y009907D01*
X046059Y010030D01*
X046381Y010030D01*
X046679Y009907D01*
X046907Y009679D01*
X047030Y009381D01*
X047030Y009059D01*
X046907Y008761D01*
X046679Y008533D01*
X046381Y008410D01*
X046059Y008410D01*
X045761Y008533D01*
X045634Y008660D01*
X044109Y008660D01*
X043903Y008745D01*
X043745Y008903D01*
X042245Y010403D01*
X042160Y010609D01*
X042160Y024160D01*
X041109Y024160D01*
X040903Y024245D01*
X040745Y024403D01*
X038488Y026660D01*
X037007Y026660D01*
X036939Y026593D01*
X036899Y026576D01*
X036917Y026559D01*
X036965Y026493D01*
X037002Y026420D01*
X037027Y026342D01*
X037040Y026261D01*
X037040Y026220D01*
X036220Y026220D01*
X033220Y026220D01*
X033220Y028220D01*
X030220Y028220D01*
X030220Y026720D01*
X029220Y026720D01*
X030220Y026720D01*
X030220Y026720D01*
X030220Y027320D01*
X030267Y027320D01*
X030360Y027305D01*
X030450Y027276D01*
X030534Y027233D01*
X030611Y027178D01*
X030678Y027111D01*
X030733Y027034D01*
X030776Y026950D01*
X030805Y026860D01*
X030820Y026767D01*
X030820Y026720D01*
X030220Y026720D01*
X030220Y026720D01*
X030220Y026720D01*
X030220Y027320D01*
X030173Y027320D01*
X030079Y027305D01*
X029990Y027276D01*
X029906Y027233D01*
X029829Y027178D01*
X029762Y027111D01*
X029720Y027053D01*
X029678Y027111D01*
X029611Y027178D01*
X029534Y027233D01*
X029450Y027276D01*
X029360Y027305D01*
X029267Y027320D01*
X029220Y027320D01*
X029220Y026720D01*
X029220Y026720D01*
X029220Y026720D01*
X029620Y026720D01*
X030220Y026720D01*
X030820Y026720D01*
X030820Y026673D01*
X030805Y026579D01*
X030776Y026490D01*
X030733Y026406D01*
X030678Y026329D01*
X030611Y026262D01*
X030534Y026207D01*
X030450Y026164D01*
X030360Y026135D01*
X030267Y026120D01*
X030220Y026120D01*
X030220Y026720D01*
X030220Y026720D01*
X030220Y026120D01*
X030173Y026120D01*
X030079Y026135D01*
X029990Y026164D01*
X029906Y026207D01*
X029829Y026262D01*
X029762Y026329D01*
X029720Y026387D01*
X029678Y026329D01*
X029611Y026262D01*
X029534Y026207D01*
X029450Y026164D01*
X029360Y026135D01*
X029267Y026120D01*
X029220Y026120D01*
X029220Y026720D01*
X029220Y027320D01*
X029173Y027320D01*
X029079Y027305D01*
X028990Y027276D01*
X028906Y027233D01*
X028883Y027217D01*
X028684Y027415D01*
X028383Y027540D01*
X028057Y027540D01*
X027756Y027415D01*
X027720Y027380D01*
X027684Y027415D01*
X027383Y027540D01*
X027057Y027540D01*
X026756Y027415D01*
X026720Y027380D01*
X026684Y027415D01*
X026383Y027540D01*
X026057Y027540D01*
X025756Y027415D01*
X025720Y027380D01*
X025684Y027415D01*
X025383Y027540D01*
X025057Y027540D01*
X024756Y027415D01*
X024525Y027184D01*
X024400Y026883D01*
X024400Y026557D01*
X024525Y026256D01*
X024756Y026025D01*
X025057Y025900D01*
X025383Y025900D01*
X025660Y026015D01*
X025660Y023414D01*
X025381Y023530D01*
X025059Y023530D01*
X024806Y023425D01*
X022780Y025452D01*
X022780Y027040D01*
X022920Y027180D01*
X022920Y027741D01*
X023200Y028021D01*
X023200Y028220D01*
X023200Y028419D01*
X022959Y028660D01*
X032898Y028660D01*
X032865Y028636D01*
X032804Y028575D01*
X032754Y028506D01*
X032715Y028429D01*
X032688Y028348D01*
X032675Y028263D01*
X032675Y028220D01*
X033220Y028220D01*
X033220Y027675D01*
X033263Y027675D01*
X033348Y027688D01*
X033429Y027715D01*
X033482Y027742D01*
X033522Y027646D01*
X033646Y027522D01*
X033807Y027455D01*
X034633Y027455D01*
X034794Y027522D01*
X034918Y027646D01*
X034924Y027660D01*
X034988Y027660D01*
X035210Y027439D01*
X035180Y027367D01*
X035180Y027073D01*
X035293Y026801D01*
X035501Y026593D01*
X035541Y026576D01*
X035523Y026559D01*
X035475Y026493D01*
X035438Y026420D01*
X035413Y026342D01*
X035400Y026261D01*
X035400Y026220D01*
X036220Y026220D01*
X036220Y026220D01*
X037040Y026220D01*
X037040Y026179D01*
X037027Y026098D01*
X037002Y026020D01*
X036965Y025947D01*
X036917Y025881D01*
X036899Y025864D01*
X036939Y025847D01*
X037147Y025639D01*
X037260Y025367D01*
X037260Y025198D01*
X037830Y024628D01*
X037940Y024363D01*
X037940Y023518D01*
X038462Y022997D01*
X038679Y022907D01*
X038907Y022679D01*
X038997Y022462D01*
X039128Y022330D01*
X039128Y022330D01*
X039330Y022128D01*
X039440Y021863D01*
X039440Y017077D01*
X039330Y016812D01*
X034830Y012312D01*
X034798Y012280D01*
X035831Y012280D01*
X036037Y012195D01*
X036195Y012037D01*
X036195Y012037D01*
X039272Y008960D01*
X039667Y008960D01*
X039939Y008847D01*
X040147Y008639D01*
X040260Y008367D01*
X040260Y008073D01*
X040147Y007801D01*
X040017Y007670D01*
X040047Y007639D01*
X040160Y007367D01*
X040160Y007073D01*
X040047Y006801D01*
X040017Y006770D01*
X040147Y006639D01*
X040260Y006367D01*
X040260Y006073D01*
X040147Y005801D01*
X040017Y005670D01*
X040047Y005639D01*
X040160Y005367D01*
X040160Y005073D01*
X040047Y004801D01*
X039861Y004614D01*
X039917Y004559D01*
X039965Y004493D01*
X040002Y004420D01*
X040027Y004342D01*
X040040Y004261D01*
X040040Y004220D01*
X039220Y004220D01*
X036720Y001720D01*
X025720Y001720D01*
X024720Y001720D01*
X023720Y001720D01*
X022720Y001720D01*
X006220Y001720D01*
X005204Y002736D01*
X005204Y004736D01*
X005204Y004736D01*
X004554Y004736D01*
X004554Y004778D01*
X004565Y004863D01*
X004587Y004945D01*
X004620Y005024D01*
X004663Y005098D01*
X004710Y005160D01*
X004002Y005160D01*
X004106Y004909D01*
X004106Y004563D01*
X003973Y004243D01*
X003729Y003998D01*
X003409Y003866D01*
X003063Y003866D01*
X002743Y003998D01*
X002498Y004243D01*
X002366Y004563D01*
X002366Y004909D01*
X002498Y005229D01*
X002676Y005406D01*
X002676Y006034D01*
X002498Y006211D01*
X002366Y006531D01*
X002366Y006877D01*
X002498Y007197D01*
X002676Y007375D01*
X000740Y007375D01*
X000740Y007137D02*
X002473Y007137D01*
X002374Y006898D02*
X000740Y006898D01*
X000740Y006660D02*
X002366Y006660D01*
X002411Y006421D02*
X000740Y006421D01*
X000740Y006183D02*
X002527Y006183D01*
X002676Y005944D02*
X000740Y005944D01*
X000740Y005706D02*
X002676Y005706D01*
X002676Y005467D02*
X000740Y005467D01*
X000740Y005229D02*
X002498Y005229D01*
X002399Y004990D02*
X000740Y004990D01*
X000740Y004752D02*
X002366Y004752D01*
X002386Y004513D02*
X000740Y004513D01*
X000740Y004275D02*
X002485Y004275D01*
X002705Y004036D02*
X000740Y004036D01*
X000740Y003798D02*
X010410Y003798D01*
X010410Y003881D02*
X010410Y003559D01*
X000740Y003559D01*
X000740Y003321D02*
X010509Y003321D01*
X010533Y003261D02*
X010761Y003033D01*
X011059Y002910D01*
X011381Y002910D01*
X011679Y003033D01*
X011907Y003261D01*
X012030Y003559D01*
X014410Y003559D01*
X014533Y003261D01*
X014761Y003033D01*
X015059Y002910D01*
X015238Y002910D01*
X015903Y002245D01*
X016109Y002160D01*
X022274Y002160D01*
X022252Y002092D01*
X022240Y002018D01*
X022240Y001720D01*
X022720Y001720D01*
X023200Y001720D01*
X023200Y002018D01*
X023188Y002092D01*
X023166Y002160D01*
X023274Y002160D01*
X023252Y002092D01*
X023240Y002018D01*
X023240Y001720D01*
X023720Y001720D01*
X024200Y001720D01*
X024200Y002018D01*
X024188Y002092D01*
X024165Y002164D01*
X024131Y002232D01*
X024086Y002293D01*
X024033Y002346D01*
X023972Y002391D01*
X023904Y002425D01*
X023832Y002448D01*
X023758Y002460D01*
X023752Y002460D01*
X024195Y002903D01*
X024280Y003109D01*
X024280Y003368D01*
X024403Y003245D01*
X024903Y002745D01*
X025109Y002660D01*
X028331Y002660D01*
X028537Y002745D01*
X028695Y002903D01*
X029452Y003660D01*
X030634Y003660D01*
X030761Y003533D01*
X031059Y003410D01*
X031381Y003410D01*
X031679Y003533D01*
X031907Y003761D01*
X032030Y004059D01*
X032030Y004381D01*
X031907Y004679D01*
X031679Y004907D01*
X031526Y004970D01*
X031679Y005033D01*
X031907Y005261D01*
X032030Y005559D01*
X032030Y005881D01*
X031914Y006160D01*
X031988Y006160D01*
X032903Y005245D01*
X033109Y005160D01*
X034634Y005160D01*
X034660Y005134D01*
X034660Y004806D01*
X034533Y004679D01*
X034410Y004381D01*
X034410Y004059D01*
X034533Y003761D01*
X034761Y003533D01*
X035059Y003410D01*
X035381Y003410D01*
X035679Y003533D01*
X035907Y003761D01*
X036030Y004059D01*
X036030Y004381D01*
X035907Y004679D01*
X035780Y004806D01*
X035780Y005134D01*
X035907Y005261D01*
X036030Y005559D01*
X036030Y005618D01*
X036903Y004745D01*
X037109Y004660D01*
X038333Y004660D01*
X038401Y004593D01*
X038514Y004546D01*
X038475Y004493D01*
X038438Y004420D01*
X038413Y004342D01*
X038400Y004261D01*
X038400Y004220D01*
X039220Y004220D01*
X039220Y004220D01*
X040040Y004220D01*
X040040Y004179D01*
X040027Y004098D01*
X040002Y004020D01*
X039965Y003947D01*
X039917Y003881D01*
X039859Y003823D01*
X039793Y003775D01*
X039720Y003738D01*
X039642Y003713D01*
X039561Y003700D01*
X039220Y003700D01*
X039220Y004220D01*
X039220Y004220D01*
X039220Y004220D01*
X039220Y003700D01*
X038879Y003700D01*
X038798Y003713D01*
X038720Y003738D01*
X038647Y003775D01*
X038581Y003823D01*
X038523Y003881D01*
X038475Y003947D01*
X038438Y004020D01*
X038413Y004098D01*
X038400Y004179D01*
X038400Y004220D01*
X039220Y004220D01*
X039220Y004036D02*
X039220Y004036D01*
X039220Y003798D02*
X039220Y003798D01*
X039823Y003798D02*
X057200Y003798D01*
X057200Y004036D02*
X040007Y004036D01*
X040038Y004275D02*
X057200Y004275D01*
X057200Y004513D02*
X039950Y004513D01*
X039998Y004752D02*
X057200Y004752D01*
X057200Y004990D02*
X040126Y004990D01*
X040160Y005229D02*
X057200Y005229D01*
X057200Y005467D02*
X040119Y005467D01*
X040052Y005706D02*
X057200Y005706D01*
X057200Y005944D02*
X040207Y005944D01*
X040260Y006183D02*
X057200Y006183D01*
X057200Y006421D02*
X040238Y006421D01*
X040127Y006660D02*
X057200Y006660D01*
X057200Y006898D02*
X040088Y006898D01*
X040160Y007137D02*
X057200Y007137D01*
X057200Y007375D02*
X040157Y007375D01*
X040058Y007614D02*
X057200Y007614D01*
X057200Y007852D02*
X040169Y007852D01*
X040260Y008091D02*
X057200Y008091D01*
X057200Y008329D02*
X040260Y008329D01*
X040177Y008568D02*
X045727Y008568D01*
X046220Y009220D02*
X044220Y009220D01*
X042720Y010720D01*
X042720Y014220D01*
X046220Y014220D01*
X046968Y014530D02*
X049472Y014530D01*
X049533Y014679D02*
X049410Y014381D01*
X049410Y014059D01*
X049533Y013761D01*
X049761Y013533D01*
X050059Y013410D01*
X050381Y013410D01*
X050679Y013533D01*
X050907Y013761D01*
X051030Y014059D01*
X051030Y014069D01*
X054981Y014069D01*
X054997Y014030D01*
X055121Y013906D01*
X055282Y013839D01*
X056158Y013839D01*
X056319Y013906D01*
X056443Y014030D01*
X056510Y014192D01*
X056510Y015067D01*
X056443Y015229D01*
X056349Y015323D01*
X056390Y015363D01*
X056510Y015653D01*
X056510Y015968D01*
X056390Y016258D01*
X056167Y016480D01*
X055877Y016601D01*
X055563Y016601D01*
X055273Y016480D01*
X055130Y016338D01*
X054114Y016280D01*
X049150Y016280D01*
X049010Y016420D01*
X048920Y016420D01*
X048920Y016760D01*
X048510Y017170D01*
X047930Y017170D01*
X047790Y017030D01*
X044559Y017030D01*
X044261Y016907D01*
X044033Y016679D01*
X043910Y016381D01*
X043910Y016059D01*
X044033Y015761D01*
X044261Y015533D01*
X044559Y015410D01*
X044881Y015410D01*
X045179Y015533D01*
X045407Y015761D01*
X045468Y015910D01*
X047240Y015910D01*
X047240Y015720D01*
X047720Y015720D01*
X047720Y015240D01*
X047919Y015240D01*
X048064Y015386D01*
X048430Y015020D01*
X049010Y015020D01*
X049150Y015160D01*
X050447Y015160D01*
X050312Y015104D01*
X050238Y015030D01*
X050059Y015030D01*
X049761Y014907D01*
X049533Y014679D01*
X049623Y014769D02*
X046817Y014769D01*
X046437Y015007D02*
X050003Y015007D01*
X050629Y014629D02*
X050220Y014220D01*
X050929Y013815D02*
X057200Y013815D01*
X057200Y014053D02*
X056452Y014053D01*
X056510Y014292D02*
X057200Y014292D01*
X057200Y014530D02*
X056510Y014530D01*
X056510Y014769D02*
X057200Y014769D01*
X057200Y015007D02*
X056510Y015007D01*
X056426Y015246D02*
X057200Y015246D01*
X057200Y015484D02*
X056440Y015484D01*
X056510Y015723D02*
X057200Y015723D01*
X057200Y015961D02*
X056510Y015961D01*
X056414Y016200D02*
X057200Y016200D01*
X057200Y016438D02*
X056210Y016438D01*
X055720Y015811D02*
X054129Y015720D01*
X048720Y015720D01*
X048205Y015246D02*
X047924Y015246D01*
X047720Y015246D02*
X047720Y015246D01*
X047720Y015240D02*
X047720Y015720D01*
X047720Y015720D01*
X047720Y015720D01*
X047240Y015720D01*
X047240Y015521D01*
X047521Y015240D01*
X047720Y015240D01*
X047516Y015246D02*
X043280Y015246D01*
X043280Y015484D02*
X044380Y015484D01*
X044072Y015723D02*
X043280Y015723D01*
X043280Y015961D02*
X043951Y015961D01*
X043910Y016200D02*
X043280Y016200D01*
X043280Y016438D02*
X043934Y016438D01*
X044032Y016677D02*
X043280Y016677D01*
X043280Y016915D02*
X044281Y016915D01*
X044970Y016470D02*
X044720Y016220D01*
X044970Y016470D02*
X048220Y016470D01*
X048920Y016438D02*
X055230Y016438D01*
X057200Y016677D02*
X048920Y016677D01*
X048765Y016915D02*
X057200Y016915D01*
X057200Y017154D02*
X048526Y017154D01*
X047914Y017154D02*
X043280Y017154D01*
X043280Y017392D02*
X057200Y017392D01*
X057200Y017631D02*
X043280Y017631D01*
X043280Y017869D02*
X057200Y017869D01*
X057200Y018108D02*
X043280Y018108D01*
X043280Y018346D02*
X057200Y018346D01*
X057200Y018585D02*
X050730Y018585D01*
X050679Y018533D02*
X050907Y018761D01*
X051030Y019059D01*
X051030Y019069D01*
X054981Y019069D01*
X054997Y019030D01*
X055121Y018906D01*
X055282Y018839D01*
X056158Y018839D01*
X056319Y018906D01*
X056443Y019030D01*
X056510Y019192D01*
X056510Y020067D01*
X056443Y020229D01*
X056349Y020323D01*
X056390Y020363D01*
X056510Y020653D01*
X056510Y020968D01*
X056390Y021258D01*
X056167Y021480D01*
X055877Y021601D01*
X055563Y021601D01*
X055273Y021480D01*
X055130Y021338D01*
X054114Y021280D01*
X049150Y021280D01*
X049010Y021420D01*
X048920Y021420D01*
X048920Y021760D01*
X048510Y022170D01*
X047930Y022170D01*
X047790Y022030D01*
X044559Y022030D01*
X044261Y021907D01*
X044033Y021679D01*
X043910Y021381D01*
X043910Y021059D01*
X044033Y020761D01*
X044261Y020533D01*
X044559Y020410D01*
X044881Y020410D01*
X045179Y020533D01*
X045407Y020761D01*
X045468Y020910D01*
X047240Y020910D01*
X047240Y020720D01*
X047720Y020720D01*
X047720Y020240D01*
X047919Y020240D01*
X048064Y020386D01*
X048430Y020020D01*
X049010Y020020D01*
X049150Y020160D01*
X050447Y020160D01*
X050312Y020104D01*
X050238Y020030D01*
X050059Y020030D01*
X049761Y019907D01*
X049533Y019679D01*
X049410Y019381D01*
X049410Y019059D01*
X049533Y018761D01*
X049761Y018533D01*
X050059Y018410D01*
X050381Y018410D01*
X050679Y018533D01*
X050932Y018823D02*
X057200Y018823D01*
X057200Y019062D02*
X056456Y019062D01*
X056510Y019300D02*
X057200Y019300D01*
X057200Y019539D02*
X056510Y019539D01*
X056510Y019777D02*
X057200Y019777D01*
X057200Y020016D02*
X056510Y020016D01*
X056418Y020254D02*
X057200Y020254D01*
X057200Y020493D02*
X056443Y020493D01*
X056510Y020731D02*
X057200Y020731D01*
X057200Y020970D02*
X056509Y020970D01*
X056410Y021208D02*
X057200Y021208D01*
X057200Y021447D02*
X056201Y021447D01*
X055239Y021447D02*
X048920Y021447D01*
X048920Y021685D02*
X057200Y021685D01*
X057200Y021924D02*
X048756Y021924D01*
X048518Y022162D02*
X057200Y022162D01*
X057200Y022401D02*
X043280Y022401D01*
X043280Y022639D02*
X057200Y022639D01*
X057200Y022878D02*
X043280Y022878D01*
X043280Y023116D02*
X057200Y023116D01*
X057200Y023355D02*
X043280Y023355D01*
X043280Y023593D02*
X057200Y023593D01*
X057200Y023832D02*
X043280Y023832D01*
X043280Y024070D02*
X057200Y024070D01*
X057200Y024309D02*
X043282Y024309D01*
X043520Y024547D02*
X057200Y024547D01*
X057200Y024786D02*
X044605Y024786D01*
X044865Y025024D02*
X057200Y025024D01*
X057200Y025263D02*
X044977Y025263D01*
X045020Y025501D02*
X057200Y025501D01*
X057200Y025740D02*
X045009Y025740D01*
X044910Y025978D02*
X057200Y025978D01*
X057200Y026217D02*
X044703Y026217D01*
X043720Y025539D02*
X042901Y024720D01*
X041220Y024720D01*
X038720Y027220D01*
X036220Y027220D01*
X035220Y028220D01*
X034220Y028220D01*
X034220Y029220D01*
X013720Y029220D01*
X013220Y028720D01*
X013220Y026220D01*
X015720Y023720D01*
X015720Y021720D01*
X015720Y019720D01*
X015066Y020016D02*
X014374Y020016D01*
X014328Y020126D02*
X014280Y020174D01*
X014280Y021266D01*
X014328Y021314D01*
X014437Y021577D01*
X014437Y021863D01*
X014328Y022126D01*
X014280Y022174D01*
X014280Y023831D01*
X014195Y024037D01*
X011780Y026452D01*
X011780Y027634D01*
X011907Y027761D01*
X012030Y028059D01*
X012030Y028381D01*
X011907Y028679D01*
X011679Y028907D01*
X011381Y029030D01*
X011059Y029030D01*
X010761Y028907D01*
X010533Y028679D01*
X010410Y028381D01*
X010410Y028059D01*
X010533Y027761D01*
X010660Y027634D01*
X010660Y026109D01*
X010745Y025903D01*
X010903Y025745D01*
X013160Y023488D01*
X013160Y022174D01*
X013112Y022126D01*
X013003Y021863D01*
X013003Y021577D01*
X013112Y021314D01*
X013160Y021266D01*
X013160Y020174D01*
X013112Y020126D01*
X013003Y019863D01*
X013003Y019577D01*
X013112Y019314D01*
X013314Y019112D01*
X013577Y019003D01*
X013863Y019003D01*
X014126Y019112D01*
X014328Y019314D01*
X014437Y019577D01*
X014437Y019863D01*
X014328Y020126D01*
X014280Y020254D02*
X015160Y020254D01*
X015160Y020174D02*
X015112Y020126D01*
X015003Y019863D01*
X015003Y019577D01*
X015112Y019314D01*
X015314Y019112D01*
X015577Y019003D01*
X015863Y019003D01*
X016126Y019112D01*
X016328Y019314D01*
X016437Y019577D01*
X016437Y019863D01*
X016328Y020126D01*
X016280Y020174D01*
X016280Y021266D01*
X016328Y021314D01*
X016437Y021577D01*
X016437Y021863D01*
X016328Y022126D01*
X016280Y022174D01*
X016280Y023831D01*
X016195Y024037D01*
X013780Y026452D01*
X013780Y028488D01*
X013952Y028660D01*
X014526Y028660D01*
X014410Y028381D01*
X014410Y028059D01*
X014533Y027761D01*
X014761Y027533D01*
X015059Y027410D01*
X015381Y027410D01*
X015679Y027533D01*
X015806Y027660D01*
X021290Y027660D01*
X021430Y027520D01*
X021520Y027520D01*
X021520Y027180D01*
X021660Y027040D01*
X021660Y025109D01*
X021745Y024903D01*
X021903Y024745D01*
X024245Y022403D01*
X024245Y022403D01*
X024403Y022245D01*
X024609Y022160D01*
X024634Y022160D01*
X024761Y022033D01*
X025059Y021910D01*
X025118Y021910D01*
X024903Y021695D01*
X024745Y021537D01*
X024660Y021331D01*
X024660Y020109D01*
X024745Y019903D01*
X025118Y019530D01*
X025059Y019530D01*
X024761Y019407D01*
X024533Y019179D01*
X024410Y018881D01*
X024410Y018559D01*
X024533Y018261D01*
X024660Y018134D01*
X024660Y017109D01*
X024697Y017019D01*
X022603Y019113D01*
X022718Y019227D01*
X022850Y019547D01*
X022850Y019893D01*
X022718Y020213D01*
X022540Y020390D01*
X022540Y022050D01*
X022718Y022227D01*
X022850Y022547D01*
X022850Y022893D01*
X022718Y023213D01*
X022473Y023458D01*
X022153Y023590D01*
X021807Y023590D01*
X021487Y023458D01*
X021350Y023320D01*
X021213Y023458D01*
X020893Y023590D01*
X020547Y023590D01*
X020227Y023458D01*
X019982Y023213D01*
X019954Y023144D01*
X019950Y023149D01*
X019889Y023210D01*
X019822Y023262D01*
X019748Y023304D01*
X019669Y023337D01*
X019587Y023359D01*
X019503Y023370D01*
X019460Y023370D01*
X019460Y022720D01*
X019460Y019720D01*
X019460Y019720D01*
X019460Y020370D01*
X019503Y020370D01*
X019587Y020359D01*
X019669Y020337D01*
X019748Y020304D01*
X019822Y020262D01*
X019889Y020210D01*
X019950Y020149D01*
X019954Y020144D01*
X019982Y020213D01*
X020227Y020458D01*
X020547Y020590D01*
X020893Y020590D01*
X021213Y020458D01*
X021350Y020320D01*
X021420Y020390D01*
X021420Y022050D01*
X021350Y022120D01*
X021213Y021982D01*
X020893Y021850D01*
X020547Y021850D01*
X020227Y021982D01*
X019982Y022227D01*
X019954Y022296D01*
X019950Y022291D01*
X019889Y022230D01*
X019822Y022178D01*
X019748Y022136D01*
X019669Y022103D01*
X019587Y022081D01*
X019503Y022070D01*
X019460Y022070D01*
X019460Y022720D01*
X019460Y022720D01*
X019460Y022720D01*
X019460Y022720D01*
X018810Y022720D01*
X018810Y022763D01*
X018821Y022847D01*
X018843Y022929D01*
X018876Y023008D01*
X018918Y023082D01*
X018970Y023149D01*
X019031Y023210D01*
X019098Y023262D01*
X019172Y023304D01*
X019251Y023337D01*
X019333Y023359D01*
X019417Y023370D01*
X019460Y023370D01*
X019460Y022720D01*
X019460Y022070D01*
X019417Y022070D01*
X019333Y022081D01*
X019251Y022103D01*
X019172Y022136D01*
X019098Y022178D01*
X019031Y022230D01*
X018970Y022291D01*
X018918Y022358D01*
X018876Y022432D01*
X018843Y022511D01*
X018821Y022593D01*
X018810Y022677D01*
X018810Y022720D01*
X019460Y022720D01*
X019460Y022639D02*
X019460Y022639D01*
X019460Y022401D02*
X019460Y022401D01*
X019460Y022162D02*
X019460Y022162D01*
X019794Y022162D02*
X020048Y022162D01*
X020369Y021924D02*
X016412Y021924D01*
X016437Y021685D02*
X021420Y021685D01*
X021420Y021447D02*
X016383Y021447D01*
X016280Y021208D02*
X021420Y021208D01*
X021420Y020970D02*
X016280Y020970D01*
X016280Y020731D02*
X021420Y020731D01*
X021420Y020493D02*
X021128Y020493D01*
X020312Y020493D02*
X016280Y020493D01*
X016280Y020254D02*
X019088Y020254D01*
X019098Y020262D02*
X019031Y020210D01*
X018970Y020149D01*
X018918Y020082D01*
X018876Y020008D01*
X018843Y019929D01*
X018821Y019847D01*
X018810Y019763D01*
X018810Y019720D01*
X019460Y019720D01*
X019460Y019070D01*
X019503Y019070D01*
X019587Y019081D01*
X019669Y019103D01*
X019748Y019136D01*
X019822Y019178D01*
X019889Y019230D01*
X019950Y019291D01*
X019954Y019296D01*
X019982Y019227D01*
X020227Y018982D01*
X020547Y018850D01*
X020893Y018850D01*
X021213Y018982D01*
X021350Y019120D01*
X021420Y019050D01*
X021420Y018833D01*
X021505Y018627D01*
X024455Y015677D01*
X024455Y015552D01*
X024571Y015271D01*
X024787Y015056D01*
X025068Y014939D01*
X025199Y014939D01*
X025826Y014322D01*
X025903Y014245D01*
X025905Y014244D01*
X025907Y014243D01*
X026008Y014202D01*
X026109Y014160D01*
X026111Y014160D01*
X026113Y014159D01*
X026222Y014160D01*
X026530Y014160D01*
X026563Y014127D01*
X026652Y014090D01*
X026647Y014086D01*
X026594Y014033D01*
X026549Y013972D01*
X026515Y013904D01*
X026492Y013832D01*
X026480Y013758D01*
X026480Y013720D01*
X027220Y013720D01*
X025720Y013720D01*
X025220Y013736D01*
X025220Y014281D01*
X025177Y014281D01*
X025092Y014267D01*
X025011Y014241D01*
X024934Y014202D01*
X024865Y014151D01*
X024804Y014091D01*
X024754Y014021D01*
X024715Y013945D01*
X024688Y013863D01*
X024675Y013779D01*
X024675Y013736D01*
X025220Y013736D01*
X025220Y013736D01*
X025220Y014281D01*
X025263Y014281D01*
X025348Y014267D01*
X025429Y014241D01*
X025506Y014202D01*
X025575Y014151D01*
X025636Y014091D01*
X025686Y014021D01*
X025725Y013945D01*
X025752Y013863D01*
X025765Y013779D01*
X025765Y013736D01*
X025220Y013736D01*
X025220Y013736D01*
X025220Y013736D01*
X024236Y014720D01*
X018720Y014720D01*
X018720Y013220D01*
X019720Y012220D01*
X020220Y012220D01*
X020220Y010720D01*
X020220Y009220D01*
X019220Y008220D01*
X005204Y008220D01*
X005204Y023736D01*
X005204Y024386D01*
X005162Y024386D01*
X005077Y024375D01*
X004995Y024353D01*
X004916Y024320D01*
X004842Y024277D01*
X004775Y024225D01*
X004715Y024165D01*
X004663Y024098D01*
X004620Y024024D01*
X004587Y023945D01*
X004565Y023863D01*
X004554Y023778D01*
X004554Y023736D01*
X005204Y023736D01*
X005204Y023736D01*
X005204Y023736D01*
X005204Y024386D01*
X005247Y024386D01*
X005331Y024375D01*
X005414Y024353D01*
X005492Y024320D01*
X005566Y024277D01*
X005634Y024225D01*
X005694Y024165D01*
X005746Y024098D01*
X005788Y024024D01*
X005821Y023945D01*
X005843Y023863D01*
X005854Y023778D01*
X005854Y023736D01*
X005204Y023736D01*
X004554Y023736D01*
X004554Y023693D01*
X004565Y023609D01*
X004587Y023526D01*
X004620Y023448D01*
X004663Y023374D01*
X004715Y023306D01*
X004775Y023246D01*
X004842Y023194D01*
X004916Y023152D01*
X004995Y023119D01*
X005077Y023097D01*
X005162Y023086D01*
X005204Y023086D01*
X005204Y023736D01*
X005204Y025704D01*
X004554Y025704D01*
X004554Y025662D01*
X004565Y025577D01*
X004587Y025495D01*
X004620Y025416D01*
X004663Y025342D01*
X004715Y025275D01*
X004775Y025215D01*
X004842Y025163D01*
X004916Y025120D01*
X004995Y025087D01*
X005077Y025065D01*
X005162Y025054D01*
X005204Y025054D01*
X005204Y025704D01*
X005204Y025704D01*
X005204Y025704D01*
X004554Y025704D01*
X004554Y025747D01*
X004565Y025831D01*
X004587Y025914D01*
X004620Y025992D01*
X004663Y026066D01*
X004715Y026134D01*
X004775Y026194D01*
X004842Y026246D01*
X004916Y026288D01*
X004995Y026321D01*
X005077Y026343D01*
X005162Y026354D01*
X005204Y026354D01*
X005204Y025704D01*
X005204Y025054D01*
X005247Y025054D01*
X005331Y025065D01*
X005414Y025087D01*
X005492Y025120D01*
X005566Y025163D01*
X005634Y025215D01*
X005694Y025275D01*
X005746Y025342D01*
X005788Y025416D01*
X005821Y025495D01*
X005843Y025577D01*
X005854Y025662D01*
X005854Y025704D01*
X005204Y025704D01*
X005204Y025704D01*
X005204Y025704D01*
X005204Y026354D01*
X005247Y026354D01*
X005331Y026343D01*
X005414Y026321D01*
X005492Y026288D01*
X005566Y026246D01*
X005634Y026194D01*
X005694Y026134D01*
X005746Y026066D01*
X005788Y025992D01*
X005821Y025914D01*
X005843Y025831D01*
X005854Y025747D01*
X005854Y025704D01*
X005204Y025704D01*
X005204Y025740D02*
X005204Y025740D01*
X005204Y025978D02*
X005204Y025978D01*
X005204Y026217D02*
X005204Y026217D01*
X004804Y026217D02*
X003954Y026217D01*
X003973Y026197D02*
X003729Y026442D01*
X003409Y026574D01*
X003063Y026574D01*
X002743Y026442D01*
X002498Y026197D01*
X002366Y025877D01*
X002366Y025531D01*
X002498Y025211D01*
X002676Y025034D01*
X002676Y024406D01*
X002498Y024229D01*
X002366Y023909D01*
X002366Y023563D01*
X002498Y023243D01*
X002676Y023065D01*
X002676Y007375D01*
X002676Y007614D02*
X000740Y007614D01*
X000740Y007852D02*
X002676Y007852D01*
X002676Y008091D02*
X000740Y008091D01*
X000740Y008329D02*
X002676Y008329D01*
X002676Y008568D02*
X000740Y008568D01*
X000740Y008806D02*
X002676Y008806D01*
X002676Y009045D02*
X000740Y009045D01*
X000740Y009283D02*
X002676Y009283D01*
X002676Y009522D02*
X000740Y009522D01*
X000740Y009760D02*
X002676Y009760D01*
X002676Y009999D02*
X000740Y009999D01*
X000740Y010237D02*
X002676Y010237D01*
X002676Y010476D02*
X000740Y010476D01*
X000740Y010714D02*
X002676Y010714D01*
X002676Y010953D02*
X000740Y010953D01*
X000740Y011191D02*
X002676Y011191D01*
X002676Y011430D02*
X000740Y011430D01*
X000740Y011668D02*
X002676Y011668D01*
X002676Y011907D02*
X000740Y011907D01*
X000740Y012145D02*
X002676Y012145D01*
X002676Y012384D02*
X000740Y012384D01*
X000740Y012622D02*
X002676Y012622D01*
X002676Y012861D02*
X000740Y012861D01*
X000740Y013099D02*
X002676Y013099D01*
X002676Y013338D02*
X000740Y013338D01*
X000740Y013576D02*
X002676Y013576D01*
X002676Y013815D02*
X000740Y013815D01*
X000740Y014053D02*
X002676Y014053D01*
X002676Y014292D02*
X000740Y014292D01*
X000740Y014530D02*
X002676Y014530D01*
X002676Y014769D02*
X000740Y014769D01*
X000740Y015007D02*
X002676Y015007D01*
X002676Y015246D02*
X000740Y015246D01*
X000740Y015484D02*
X002676Y015484D01*
X002676Y015723D02*
X000740Y015723D01*
X000740Y015961D02*
X002676Y015961D01*
X002676Y016200D02*
X000740Y016200D01*
X000740Y016438D02*
X002676Y016438D01*
X002676Y016677D02*
X000740Y016677D01*
X000740Y016915D02*
X002676Y016915D01*
X002676Y017154D02*
X000740Y017154D01*
X000740Y017392D02*
X002676Y017392D01*
X002676Y017631D02*
X000740Y017631D01*
X000740Y017869D02*
X002676Y017869D01*
X002676Y018108D02*
X000740Y018108D01*
X000740Y018346D02*
X002676Y018346D01*
X002676Y018585D02*
X000740Y018585D01*
X000740Y018823D02*
X002676Y018823D01*
X002676Y019062D02*
X000740Y019062D01*
X000740Y019300D02*
X002676Y019300D01*
X002676Y019539D02*
X000740Y019539D01*
X000740Y019777D02*
X002676Y019777D01*
X002676Y020016D02*
X000740Y020016D01*
X000740Y020254D02*
X002676Y020254D01*
X002676Y020493D02*
X000740Y020493D01*
X000740Y020731D02*
X002676Y020731D01*
X002676Y020970D02*
X000740Y020970D01*
X000740Y021208D02*
X002676Y021208D01*
X002676Y021447D02*
X000740Y021447D01*
X000740Y021685D02*
X002676Y021685D01*
X002676Y021924D02*
X000740Y021924D01*
X000740Y022162D02*
X002676Y022162D01*
X002676Y022401D02*
X000740Y022401D01*
X000740Y022639D02*
X002676Y022639D01*
X002676Y022878D02*
X000740Y022878D01*
X000740Y023116D02*
X002625Y023116D01*
X002452Y023355D02*
X000740Y023355D01*
X000740Y023593D02*
X002366Y023593D01*
X002366Y023832D02*
X000740Y023832D01*
X000740Y024070D02*
X002433Y024070D01*
X002578Y024309D02*
X000740Y024309D01*
X000740Y024547D02*
X002676Y024547D01*
X002676Y024786D02*
X000740Y024786D01*
X000740Y025024D02*
X002676Y025024D01*
X002477Y025263D02*
X000740Y025263D01*
X000740Y025501D02*
X002378Y025501D01*
X002366Y025740D02*
X000740Y025740D01*
X000740Y025978D02*
X002407Y025978D01*
X002518Y026217D02*
X000740Y026217D01*
X000740Y026455D02*
X002775Y026455D01*
X003697Y026455D02*
X010660Y026455D01*
X010660Y026217D02*
X005604Y026217D01*
X005794Y025978D02*
X010714Y025978D01*
X010909Y025740D02*
X005854Y025740D01*
X005823Y025501D02*
X011147Y025501D01*
X011386Y025263D02*
X005682Y025263D01*
X005204Y025263D02*
X005204Y025263D01*
X005204Y025501D02*
X005204Y025501D01*
X004727Y025263D02*
X003994Y025263D01*
X003973Y025211D02*
X004106Y025531D01*
X004106Y025877D01*
X003973Y026197D01*
X004064Y025978D02*
X004614Y025978D01*
X004554Y025740D02*
X004106Y025740D01*
X004093Y025501D02*
X004586Y025501D01*
X003973Y025211D02*
X003796Y025034D01*
X003796Y024406D01*
X003973Y024229D01*
X004106Y023909D01*
X004106Y023563D01*
X003973Y023243D01*
X003796Y023065D01*
X003796Y007375D01*
X010729Y007375D01*
X010761Y007407D02*
X010634Y007280D01*
X008109Y007280D01*
X007903Y007195D01*
X006988Y006280D01*
X005698Y006280D01*
X005746Y006342D01*
X005788Y006416D01*
X005821Y006495D01*
X005843Y006577D01*
X005854Y006662D01*
X005854Y006704D01*
X005204Y006704D01*
X004554Y006704D01*
X004554Y006662D01*
X004565Y006577D01*
X004587Y006495D01*
X004620Y006416D01*
X004663Y006342D01*
X004710Y006280D01*
X004002Y006280D01*
X004106Y006531D01*
X004106Y006877D01*
X003973Y007197D01*
X003796Y007375D01*
X003796Y007614D02*
X022160Y007614D01*
X022160Y007831D02*
X022160Y006280D01*
X015914Y006280D01*
X016030Y006559D01*
X016030Y006881D01*
X015907Y007179D01*
X015679Y007407D01*
X015381Y007530D01*
X015059Y007530D01*
X014761Y007407D01*
X014634Y007280D01*
X013609Y007280D01*
X013403Y007195D01*
X013245Y007037D01*
X011988Y005780D01*
X011806Y005780D01*
X011679Y005907D01*
X011526Y005970D01*
X011679Y006033D01*
X011907Y006261D01*
X012030Y006559D01*
X012030Y006881D01*
X011907Y007179D01*
X011679Y007407D01*
X011381Y007530D01*
X011059Y007530D01*
X010761Y007407D01*
X011711Y007375D02*
X014729Y007375D01*
X015220Y006720D02*
X013720Y006720D01*
X012220Y005220D01*
X011220Y005220D01*
X011220Y003720D01*
X011966Y004036D02*
X014474Y004036D01*
X014533Y004179D02*
X014410Y003881D01*
X014410Y003559D01*
X014410Y003798D02*
X012030Y003798D01*
X012030Y003881D02*
X011907Y004179D01*
X011780Y004306D01*
X011780Y004634D01*
X011806Y004660D01*
X012331Y004660D01*
X012537Y004745D01*
X013952Y006160D01*
X014634Y006160D01*
X014761Y006033D01*
X014914Y005970D01*
X014761Y005907D01*
X014533Y005679D01*
X014410Y005381D01*
X014410Y005059D01*
X014533Y004761D01*
X014761Y004533D01*
X014914Y004470D01*
X014761Y004407D01*
X014533Y004179D01*
X014629Y004275D02*
X011811Y004275D01*
X011780Y004513D02*
X014810Y004513D01*
X014543Y004752D02*
X012543Y004752D01*
X012782Y004990D02*
X014439Y004990D01*
X014410Y005229D02*
X013020Y005229D01*
X013259Y005467D02*
X014446Y005467D01*
X014560Y005706D02*
X013497Y005706D01*
X013736Y005944D02*
X014851Y005944D01*
X015220Y005220D02*
X015720Y005720D01*
X022720Y005720D01*
X022720Y004720D01*
X023720Y004720D02*
X023720Y003220D01*
X023220Y002720D01*
X016220Y002720D01*
X015220Y003720D01*
X014509Y003321D02*
X011931Y003321D01*
X012030Y003559D02*
X012030Y003881D01*
X010660Y004306D02*
X010660Y004634D01*
X010533Y004761D01*
X010410Y005059D01*
X010410Y005381D01*
X010533Y005679D01*
X010761Y005907D01*
X010914Y005970D01*
X010761Y006033D01*
X010634Y006160D01*
X008452Y006160D01*
X007695Y005403D01*
X007537Y005245D01*
X007331Y005160D01*
X005698Y005160D01*
X005746Y005098D01*
X005788Y005024D01*
X005821Y004945D01*
X005843Y004863D01*
X005854Y004778D01*
X005854Y004736D01*
X005204Y004736D01*
X004554Y004736D01*
X004554Y004693D01*
X004565Y004609D01*
X004587Y004526D01*
X004620Y004448D01*
X004663Y004374D01*
X004715Y004306D01*
X004775Y004246D01*
X004842Y004194D01*
X004916Y004152D01*
X004995Y004119D01*
X005077Y004097D01*
X005162Y004086D01*
X005204Y004086D01*
X005204Y004736D01*
X005204Y004736D01*
X005204Y004736D01*
X005204Y004086D01*
X005247Y004086D01*
X005331Y004097D01*
X005414Y004119D01*
X005492Y004152D01*
X005566Y004194D01*
X005634Y004246D01*
X005694Y004306D01*
X005746Y004374D01*
X005788Y004448D01*
X005821Y004526D01*
X005843Y004609D01*
X005854Y004693D01*
X005854Y004736D01*
X005204Y004736D01*
X005204Y004513D02*
X005204Y004513D01*
X005204Y004275D02*
X005204Y004275D01*
X004746Y004275D02*
X003986Y004275D01*
X004085Y004513D02*
X004593Y004513D01*
X004554Y004752D02*
X004106Y004752D01*
X004072Y004990D02*
X004606Y004990D01*
X005802Y004990D02*
X010439Y004990D01*
X010410Y005229D02*
X007497Y005229D01*
X007759Y005467D02*
X010446Y005467D01*
X010560Y005706D02*
X007997Y005706D01*
X008236Y005944D02*
X010851Y005944D01*
X011589Y005944D02*
X012152Y005944D01*
X012391Y006183D02*
X011828Y006183D01*
X011973Y006421D02*
X012629Y006421D01*
X012868Y006660D02*
X012030Y006660D01*
X012023Y006898D02*
X013106Y006898D01*
X013245Y007037D02*
X013245Y007037D01*
X013345Y007137D02*
X011924Y007137D01*
X011220Y006720D02*
X008220Y006720D01*
X007220Y005720D01*
X003236Y005720D01*
X003236Y006704D01*
X003236Y023736D01*
X003236Y025704D01*
X003796Y025024D02*
X011624Y025024D01*
X011863Y024786D02*
X003796Y024786D01*
X003796Y024547D02*
X012101Y024547D01*
X012340Y024309D02*
X005512Y024309D01*
X005204Y024309D02*
X005204Y024309D01*
X005204Y024070D02*
X005204Y024070D01*
X005204Y023832D02*
X005204Y023832D01*
X005204Y023736D02*
X005204Y023736D01*
X005204Y023736D01*
X005204Y023086D01*
X005247Y023086D01*
X005331Y023097D01*
X005414Y023119D01*
X005492Y023152D01*
X005566Y023194D01*
X005634Y023246D01*
X005694Y023306D01*
X005746Y023374D01*
X005788Y023448D01*
X005821Y023526D01*
X005843Y023609D01*
X005854Y023693D01*
X005854Y023736D01*
X005204Y023736D01*
X005204Y023593D02*
X005204Y023593D01*
X005204Y023355D02*
X005204Y023355D01*
X005204Y023116D02*
X005204Y023116D01*
X005006Y023116D02*
X003846Y023116D01*
X003796Y022878D02*
X013160Y022878D01*
X013160Y023116D02*
X005403Y023116D01*
X005731Y023355D02*
X013160Y023355D01*
X013055Y023593D02*
X005839Y023593D01*
X005847Y023832D02*
X012817Y023832D01*
X012578Y024070D02*
X005762Y024070D01*
X004896Y024309D02*
X003893Y024309D01*
X004039Y024070D02*
X004647Y024070D01*
X004561Y023832D02*
X004106Y023832D01*
X004106Y023593D02*
X004570Y023593D01*
X004677Y023355D02*
X004020Y023355D01*
X003796Y022639D02*
X013160Y022639D01*
X013160Y022401D02*
X003796Y022401D01*
X003796Y022162D02*
X013148Y022162D01*
X013028Y021924D02*
X003796Y021924D01*
X003796Y021685D02*
X013003Y021685D01*
X013057Y021447D02*
X003796Y021447D01*
X003796Y021208D02*
X013160Y021208D01*
X013160Y020970D02*
X003796Y020970D01*
X003796Y020731D02*
X013160Y020731D01*
X013160Y020493D02*
X003796Y020493D01*
X003796Y020254D02*
X013160Y020254D01*
X013066Y020016D02*
X003796Y020016D01*
X003796Y019777D02*
X013003Y019777D01*
X013019Y019539D02*
X003796Y019539D01*
X003796Y019300D02*
X013126Y019300D01*
X013436Y019062D02*
X003796Y019062D01*
X003796Y018823D02*
X021424Y018823D01*
X021408Y019062D02*
X021292Y019062D01*
X021980Y018944D02*
X025220Y015704D01*
X026220Y014720D01*
X027220Y014720D01*
X027877Y014127D02*
X028073Y014323D01*
X028180Y014581D01*
X028180Y014859D01*
X028073Y015117D01*
X027970Y015220D01*
X028073Y015323D01*
X028180Y015581D01*
X028180Y015859D01*
X028073Y016117D01*
X027970Y016220D01*
X028073Y016323D01*
X028180Y016581D01*
X028180Y016859D01*
X028073Y017117D01*
X027970Y017220D01*
X028073Y017323D01*
X028180Y017581D01*
X028180Y017859D01*
X028073Y018117D01*
X027970Y018220D01*
X028073Y018323D01*
X028180Y018581D01*
X028180Y018859D01*
X028073Y019117D01*
X027970Y019220D01*
X028073Y019323D01*
X028180Y019581D01*
X028180Y019859D01*
X028073Y020117D01*
X027970Y020220D01*
X028073Y020323D01*
X028180Y020581D01*
X028180Y020859D01*
X028172Y020880D01*
X028952Y021660D01*
X032988Y021660D01*
X033108Y021540D01*
X032252Y021540D01*
X032091Y021473D01*
X031967Y021349D01*
X031938Y021280D01*
X030910Y021280D01*
X030877Y021313D01*
X030619Y021420D01*
X029821Y021420D01*
X029563Y021313D01*
X029367Y021117D01*
X029260Y020859D01*
X029260Y020581D01*
X029367Y020323D01*
X029470Y020220D01*
X029367Y020117D01*
X029260Y019859D01*
X029260Y019581D01*
X029367Y019323D01*
X029470Y019220D01*
X029367Y019117D01*
X029260Y018859D01*
X029260Y018581D01*
X029367Y018323D01*
X029470Y018220D01*
X029367Y018117D01*
X029260Y017859D01*
X029260Y017581D01*
X029367Y017323D01*
X029470Y017220D01*
X029367Y017117D01*
X029260Y016859D01*
X029260Y016581D01*
X029367Y016323D01*
X029470Y016220D01*
X029367Y016117D01*
X029260Y015859D01*
X029260Y015581D01*
X029367Y015323D01*
X029563Y015127D01*
X029652Y015090D01*
X029647Y015086D01*
X029594Y015033D01*
X029549Y014972D01*
X029515Y014904D01*
X029492Y014832D01*
X029480Y014758D01*
X029480Y014720D01*
X030220Y014720D01*
X029720Y014720D01*
X028720Y013720D01*
X027220Y013720D01*
X027960Y013720D01*
X027960Y013758D01*
X027948Y013832D01*
X027925Y013904D01*
X027891Y013972D01*
X027846Y014033D01*
X027793Y014086D01*
X027788Y014090D01*
X027877Y014127D01*
X027826Y014053D02*
X029340Y014053D01*
X029367Y014117D02*
X029260Y013859D01*
X029260Y013581D01*
X029367Y013323D01*
X029410Y013280D01*
X029109Y013280D01*
X028903Y013195D01*
X028745Y013037D01*
X028245Y012537D01*
X028160Y012331D01*
X028160Y011908D01*
X028073Y012117D01*
X027970Y012220D01*
X028073Y012323D01*
X028180Y012581D01*
X028180Y012859D01*
X028073Y013117D01*
X027877Y013313D01*
X027788Y013350D01*
X027793Y013354D01*
X027846Y013407D01*
X027891Y013468D01*
X027925Y013536D01*
X027948Y013608D01*
X027960Y013682D01*
X027960Y013720D01*
X027220Y013720D01*
X027220Y013720D01*
X027220Y013720D01*
X027220Y014020D01*
X027220Y014020D01*
X027220Y013720D01*
X027220Y013720D01*
X027220Y013420D01*
X027220Y013420D01*
X027220Y013720D01*
X027220Y013720D01*
X026480Y013720D01*
X026480Y013682D01*
X026492Y013608D01*
X026515Y013536D01*
X026549Y013468D01*
X026594Y013407D01*
X026647Y013354D01*
X026652Y013350D01*
X026563Y013313D01*
X026530Y013280D01*
X025520Y013280D01*
X025575Y013320D01*
X025636Y013381D01*
X025686Y013450D01*
X025725Y013527D01*
X025752Y013608D01*
X025765Y013693D01*
X025765Y013736D01*
X025220Y013736D01*
X024675Y013736D01*
X024675Y013693D01*
X024688Y013608D01*
X024715Y013527D01*
X024754Y013450D01*
X024804Y013381D01*
X024865Y013320D01*
X024920Y013280D01*
X024313Y013280D01*
X024071Y013380D01*
X023369Y013380D01*
X023126Y013280D01*
X022940Y013094D01*
X022840Y012851D01*
X022840Y012780D01*
X021742Y012780D01*
X021653Y012869D01*
X021372Y012985D01*
X021068Y012985D01*
X020787Y012869D01*
X020571Y012653D01*
X020567Y012642D01*
X020506Y012686D01*
X020429Y012725D01*
X020348Y012752D01*
X020263Y012765D01*
X020220Y012765D01*
X020220Y012220D01*
X020220Y012220D01*
X020220Y011675D01*
X020263Y011675D01*
X020348Y011688D01*
X020429Y011715D01*
X020506Y011754D01*
X020567Y011798D01*
X020571Y011787D01*
X020787Y011571D01*
X021032Y011470D01*
X020787Y011369D01*
X020571Y011153D01*
X020567Y011142D01*
X020506Y011186D01*
X020429Y011225D01*
X020348Y011252D01*
X020263Y011265D01*
X020220Y011265D01*
X020220Y010720D01*
X020220Y010720D01*
X020220Y010175D01*
X020263Y010175D01*
X020348Y010188D01*
X020429Y010215D01*
X020506Y010254D01*
X020567Y010298D01*
X020571Y010287D01*
X020787Y010071D01*
X021068Y009955D01*
X021372Y009955D01*
X021653Y010071D01*
X021742Y010160D01*
X023127Y010160D01*
X023369Y010060D01*
X024071Y010060D01*
X024314Y010160D01*
X024500Y010346D01*
X024600Y010589D01*
X024600Y010808D01*
X024952Y011160D01*
X025368Y011160D01*
X022403Y008195D01*
X022245Y008037D01*
X022160Y007831D01*
X022169Y007852D02*
X003796Y007852D01*
X003796Y008091D02*
X022299Y008091D01*
X022537Y008329D02*
X003796Y008329D01*
X003796Y008568D02*
X013421Y008568D01*
X013314Y008612D02*
X013577Y008503D01*
X013863Y008503D01*
X014126Y008612D01*
X014328Y008814D01*
X014437Y009077D01*
X014437Y009363D01*
X014328Y009626D01*
X014280Y009674D01*
X014280Y010766D01*
X014328Y010814D01*
X014437Y011077D01*
X014437Y011363D01*
X014328Y011626D01*
X014126Y011828D01*
X013863Y011937D01*
X013577Y011937D01*
X013314Y011828D01*
X013112Y011626D01*
X013003Y011363D01*
X013003Y011077D01*
X013112Y010814D01*
X013160Y010766D01*
X013160Y009674D01*
X013112Y009626D01*
X013003Y009363D01*
X013003Y009077D01*
X013112Y008814D01*
X013314Y008612D01*
X013120Y008806D02*
X003796Y008806D01*
X003796Y009045D02*
X013016Y009045D01*
X013003Y009283D02*
X003796Y009283D01*
X003796Y009522D02*
X013069Y009522D01*
X013160Y009760D02*
X003796Y009760D01*
X003796Y009999D02*
X013160Y009999D01*
X013160Y010237D02*
X003796Y010237D01*
X003796Y010476D02*
X013160Y010476D01*
X013160Y010714D02*
X003796Y010714D01*
X003796Y010953D02*
X013055Y010953D01*
X013003Y011191D02*
X003796Y011191D01*
X003796Y011430D02*
X013031Y011430D01*
X013154Y011668D02*
X003796Y011668D01*
X003796Y011907D02*
X013503Y011907D01*
X013937Y011907D02*
X015503Y011907D01*
X015577Y011937D02*
X015314Y011828D01*
X015112Y011626D01*
X015003Y011363D01*
X015003Y011077D01*
X015112Y010814D01*
X015160Y010766D01*
X015160Y009674D01*
X015112Y009626D01*
X015003Y009363D01*
X015003Y009077D01*
X015112Y008814D01*
X015314Y008612D01*
X015577Y008503D01*
X015863Y008503D01*
X016126Y008612D01*
X016328Y008814D01*
X016437Y009077D01*
X016437Y009363D01*
X016328Y009626D01*
X016280Y009674D01*
X016280Y010766D01*
X016328Y010814D01*
X016437Y011077D01*
X016437Y011363D01*
X016328Y011626D01*
X016126Y011828D01*
X015863Y011937D01*
X015577Y011937D01*
X015937Y011907D02*
X019774Y011907D01*
X019754Y011934D02*
X019804Y011865D01*
X019865Y011804D01*
X019934Y011754D01*
X020011Y011715D01*
X020092Y011688D01*
X020177Y011675D01*
X020220Y011675D01*
X020220Y012220D01*
X020220Y012220D01*
X020220Y012220D01*
X019675Y012220D01*
X019675Y012263D01*
X019688Y012348D01*
X019715Y012429D01*
X019754Y012506D01*
X019804Y012575D01*
X019865Y012636D01*
X019934Y012686D01*
X020011Y012725D01*
X020092Y012752D01*
X020177Y012765D01*
X020220Y012765D01*
X020220Y012220D01*
X019675Y012220D01*
X019675Y012177D01*
X019688Y012092D01*
X019715Y012011D01*
X019754Y011934D01*
X019680Y012145D02*
X003796Y012145D01*
X003796Y012384D02*
X019700Y012384D01*
X019851Y012622D02*
X003796Y012622D01*
X003796Y012861D02*
X020779Y012861D01*
X020679Y013033D02*
X020907Y013261D01*
X021030Y013559D01*
X021030Y013881D01*
X020907Y014179D01*
X020679Y014407D01*
X020381Y014530D01*
X020059Y014530D01*
X019761Y014407D01*
X019533Y014179D01*
X019410Y013881D01*
X019410Y013559D01*
X019533Y013261D01*
X019761Y013033D01*
X020059Y012910D01*
X020381Y012910D01*
X020679Y013033D01*
X020745Y013099D02*
X022946Y013099D01*
X022844Y012861D02*
X021661Y012861D01*
X020938Y013338D02*
X023266Y013338D01*
X023720Y012720D02*
X023220Y012220D01*
X021220Y012220D01*
X020690Y011668D02*
X016286Y011668D01*
X016409Y011430D02*
X020934Y011430D01*
X020609Y011191D02*
X020496Y011191D01*
X020220Y011191D02*
X020220Y011191D01*
X020220Y011265D02*
X020177Y011265D01*
X020092Y011252D01*
X020011Y011225D01*
X019934Y011186D01*
X019865Y011136D01*
X019804Y011075D01*
X019754Y011006D01*
X019715Y010929D01*
X019688Y010848D01*
X019675Y010763D01*
X019675Y010720D01*
X020220Y010720D01*
X020220Y010720D01*
X020220Y010720D01*
X020220Y011265D01*
X019944Y011191D02*
X016437Y011191D01*
X016385Y010953D02*
X019727Y010953D01*
X019675Y010720D02*
X019675Y010677D01*
X019688Y010592D01*
X019715Y010511D01*
X019754Y010434D01*
X019804Y010365D01*
X019865Y010304D01*
X019934Y010254D01*
X020011Y010215D01*
X020092Y010188D01*
X020177Y010175D01*
X020220Y010175D01*
X020220Y010720D01*
X019675Y010720D01*
X019675Y010714D02*
X016280Y010714D01*
X016280Y010476D02*
X019733Y010476D01*
X019967Y010237D02*
X016280Y010237D01*
X016280Y009999D02*
X020963Y009999D01*
X020621Y010237D02*
X020473Y010237D01*
X020220Y010237D02*
X020220Y010237D01*
X020220Y010476D02*
X020220Y010476D01*
X020220Y010714D02*
X020220Y010714D01*
X020220Y010953D02*
X020220Y010953D01*
X021220Y010720D02*
X023720Y010720D01*
X024720Y011720D01*
X027220Y011720D01*
X028045Y012145D02*
X028160Y012145D01*
X028182Y012384D02*
X028098Y012384D01*
X028180Y012622D02*
X028330Y012622D01*
X028179Y012861D02*
X028569Y012861D01*
X028807Y013099D02*
X028081Y013099D01*
X027818Y013338D02*
X029361Y013338D01*
X029262Y013576D02*
X027938Y013576D01*
X027951Y013815D02*
X029260Y013815D01*
X029367Y014117D02*
X029563Y014313D01*
X029652Y014350D01*
X029647Y014354D01*
X029594Y014407D01*
X029549Y014468D01*
X029515Y014536D01*
X029492Y014608D01*
X029480Y014682D01*
X029480Y014720D01*
X030220Y014720D01*
X032720Y014720D01*
X032830Y014720D01*
X035720Y017610D01*
X035720Y018220D01*
X034940Y018830D01*
X036220Y020110D01*
X036220Y021720D01*
X034720Y023220D01*
X033720Y023220D01*
X033220Y023720D01*
X033220Y024220D01*
X033220Y026220D01*
X032369Y025638D02*
X032153Y025853D01*
X031872Y025969D01*
X031568Y025969D01*
X031287Y025853D01*
X031071Y025638D01*
X030955Y025356D01*
X030955Y025052D01*
X031071Y024771D01*
X031287Y024556D01*
X031568Y024439D01*
X031872Y024439D01*
X032153Y024556D01*
X032369Y024771D01*
X032485Y025052D01*
X032485Y025356D01*
X032369Y025638D01*
X032267Y025740D02*
X035393Y025740D01*
X035293Y025639D02*
X035180Y025367D01*
X035180Y025073D01*
X035210Y025001D01*
X034988Y024780D01*
X034924Y024780D01*
X034918Y024794D01*
X034794Y024918D01*
X034633Y024985D01*
X033807Y024985D01*
X033646Y024918D01*
X033522Y024794D01*
X033482Y024698D01*
X033429Y024725D01*
X033348Y024752D01*
X033263Y024765D01*
X033220Y024765D01*
X033220Y024220D01*
X033220Y024220D01*
X033220Y023675D01*
X033263Y023675D01*
X033348Y023688D01*
X033429Y023715D01*
X033482Y023742D01*
X033522Y023646D01*
X033646Y023522D01*
X033807Y023455D01*
X034633Y023455D01*
X034794Y023522D01*
X034918Y023646D01*
X034924Y023660D01*
X035331Y023660D01*
X035537Y023745D01*
X036107Y024315D01*
X036500Y023922D01*
X036500Y023077D01*
X036610Y022812D01*
X036812Y022610D01*
X037443Y021978D01*
X037533Y021761D01*
X037761Y021533D01*
X037978Y021443D01*
X038000Y021422D01*
X038000Y021256D01*
X037959Y021297D01*
X037661Y021420D01*
X037339Y021420D01*
X037041Y021297D01*
X036813Y021069D01*
X036690Y020771D01*
X036690Y020449D01*
X036813Y020151D01*
X037041Y019923D01*
X037339Y019800D01*
X037661Y019800D01*
X037959Y019923D01*
X038000Y019964D01*
X038000Y019476D01*
X037959Y019517D01*
X037661Y019640D01*
X037339Y019640D01*
X037041Y019517D01*
X036813Y019289D01*
X036690Y018991D01*
X036690Y018669D01*
X036813Y018371D01*
X037041Y018143D01*
X037339Y018020D01*
X037661Y018020D01*
X037959Y018143D01*
X038000Y018184D01*
X038000Y017518D01*
X033922Y013440D01*
X033019Y013440D01*
X032872Y013501D01*
X032568Y013501D01*
X032459Y013456D01*
X031128Y013456D01*
X031180Y013581D01*
X031180Y013859D01*
X031073Y014117D01*
X030877Y014313D01*
X030788Y014350D01*
X030793Y014354D01*
X030846Y014407D01*
X030891Y014468D01*
X030925Y014536D01*
X030948Y014608D01*
X030960Y014682D01*
X030960Y014720D01*
X030960Y014758D01*
X030948Y014832D01*
X030925Y014904D01*
X030891Y014972D01*
X030846Y015033D01*
X030793Y015086D01*
X030788Y015090D01*
X030877Y015127D01*
X031073Y015323D01*
X031180Y015581D01*
X031180Y015859D01*
X031073Y016117D01*
X030970Y016220D01*
X031073Y016323D01*
X031180Y016581D01*
X031180Y016859D01*
X031073Y017117D01*
X030970Y017220D01*
X031073Y017323D01*
X031180Y017581D01*
X031180Y017859D01*
X031073Y018117D01*
X030970Y018220D01*
X031073Y018323D01*
X031180Y018581D01*
X031180Y018859D01*
X031073Y019117D01*
X030970Y019220D01*
X031073Y019323D01*
X031180Y019581D01*
X031180Y019859D01*
X031073Y020117D01*
X031030Y020160D01*
X031938Y020160D01*
X031967Y020091D01*
X032091Y019967D01*
X032252Y019900D01*
X033188Y019900D01*
X033349Y019967D01*
X033473Y020091D01*
X033540Y020252D01*
X033540Y021106D01*
X033556Y021093D01*
X033623Y021025D01*
X033638Y021019D01*
X034130Y020581D01*
X034130Y020449D01*
X034253Y020151D01*
X034481Y019923D01*
X034779Y019800D01*
X035101Y019800D01*
X035399Y019923D01*
X035627Y020151D01*
X035750Y020449D01*
X035750Y020771D01*
X035627Y021069D01*
X035399Y021297D01*
X035101Y021420D01*
X034872Y021420D01*
X034710Y021564D01*
X034907Y021761D01*
X035030Y022059D01*
X035030Y022381D01*
X034907Y022679D01*
X034679Y022907D01*
X034381Y023030D01*
X034059Y023030D01*
X033761Y022907D01*
X033543Y022689D01*
X033537Y022695D01*
X033331Y022780D01*
X032346Y022780D01*
X032369Y022802D01*
X032485Y023084D01*
X032485Y023388D01*
X032369Y023669D01*
X032153Y023884D01*
X031872Y024001D01*
X031568Y024001D01*
X031287Y023884D01*
X031071Y023669D01*
X030955Y023388D01*
X030955Y023084D01*
X031071Y022802D01*
X031094Y022780D01*
X028609Y022780D01*
X028403Y022695D01*
X027754Y022046D01*
X027780Y022109D01*
X027780Y026015D01*
X028057Y025900D01*
X028383Y025900D01*
X028684Y026025D01*
X028883Y026223D01*
X028906Y026207D01*
X028990Y026164D01*
X029079Y026135D01*
X029173Y026120D01*
X029220Y026120D01*
X029220Y026720D01*
X029220Y026720D01*
X029220Y026694D02*
X029220Y026694D01*
X029220Y026932D02*
X029220Y026932D01*
X029220Y027171D02*
X029220Y027171D01*
X029618Y027171D02*
X029822Y027171D01*
X030220Y027171D02*
X030220Y027171D01*
X030220Y026932D02*
X030220Y026932D01*
X030220Y026694D02*
X030220Y026694D01*
X030220Y026455D02*
X030220Y026455D01*
X030220Y026217D02*
X030220Y026217D01*
X030548Y026217D02*
X035400Y026217D01*
X035400Y026220D02*
X035400Y026179D01*
X035413Y026098D01*
X035438Y026020D01*
X035475Y025947D01*
X035523Y025881D01*
X035541Y025864D01*
X035501Y025847D01*
X035293Y025639D01*
X035235Y025501D02*
X032425Y025501D01*
X032485Y025263D02*
X035180Y025263D01*
X035200Y025024D02*
X032473Y025024D01*
X032375Y024786D02*
X033518Y024786D01*
X033220Y024765D02*
X033177Y024765D01*
X033092Y024752D01*
X033011Y024725D01*
X032934Y024686D01*
X032865Y024636D01*
X032804Y024575D01*
X032754Y024506D01*
X032715Y024429D01*
X032688Y024348D01*
X032675Y024263D01*
X032675Y024220D01*
X033220Y024220D01*
X033220Y024220D01*
X033220Y024220D01*
X033220Y024765D01*
X033220Y024547D02*
X033220Y024547D01*
X033220Y024309D02*
X033220Y024309D01*
X033220Y024220D02*
X032675Y024220D01*
X032675Y024177D01*
X032688Y024092D01*
X032715Y024011D01*
X032754Y023934D01*
X032804Y023865D01*
X032865Y023804D01*
X032934Y023754D01*
X033011Y023715D01*
X033092Y023688D01*
X033177Y023675D01*
X033220Y023675D01*
X033220Y024220D01*
X033220Y024070D02*
X033220Y024070D01*
X033220Y023832D02*
X033220Y023832D01*
X032838Y023832D02*
X032206Y023832D01*
X032400Y023593D02*
X033575Y023593D01*
X032485Y023355D02*
X036500Y023355D01*
X036500Y023593D02*
X034865Y023593D01*
X035623Y023832D02*
X036500Y023832D01*
X036352Y024070D02*
X035862Y024070D01*
X036100Y024309D02*
X036113Y024309D01*
X035220Y024220D02*
X036220Y025220D01*
X037047Y025740D02*
X039409Y025740D01*
X039647Y025501D02*
X037205Y025501D01*
X037260Y025263D02*
X039886Y025263D01*
X040124Y025024D02*
X037434Y025024D01*
X037673Y024786D02*
X040363Y024786D01*
X040601Y024547D02*
X037864Y024547D01*
X037940Y024309D02*
X040840Y024309D01*
X042160Y024070D02*
X037940Y024070D01*
X037940Y023832D02*
X042160Y023832D01*
X042160Y023593D02*
X037940Y023593D01*
X038104Y023355D02*
X042160Y023355D01*
X042160Y023116D02*
X038342Y023116D01*
X038708Y022878D02*
X042160Y022878D01*
X042160Y022639D02*
X038923Y022639D01*
X039058Y022401D02*
X042160Y022401D01*
X042160Y022162D02*
X039296Y022162D01*
X039415Y021924D02*
X040302Y021924D01*
X040261Y021907D02*
X040033Y021679D01*
X039910Y021381D01*
X039910Y021059D01*
X040033Y020761D01*
X040261Y020533D01*
X040559Y020410D01*
X040881Y020410D01*
X041179Y020533D01*
X041407Y020761D01*
X041530Y021059D01*
X041530Y021381D01*
X041407Y021679D01*
X041179Y021907D01*
X040881Y022030D01*
X040559Y022030D01*
X040261Y021907D01*
X040040Y021685D02*
X039440Y021685D01*
X039440Y021447D02*
X039937Y021447D01*
X039910Y021208D02*
X039440Y021208D01*
X039440Y020970D02*
X039947Y020970D01*
X040063Y020731D02*
X039440Y020731D01*
X039440Y020493D02*
X040360Y020493D01*
X041080Y020493D02*
X042160Y020493D01*
X042160Y020731D02*
X041377Y020731D01*
X041493Y020970D02*
X042160Y020970D01*
X042160Y021208D02*
X041530Y021208D01*
X041503Y021447D02*
X042160Y021447D01*
X042160Y021685D02*
X041400Y021685D01*
X041138Y021924D02*
X042160Y021924D01*
X043280Y021924D02*
X044302Y021924D01*
X044040Y021685D02*
X043280Y021685D01*
X043280Y021447D02*
X043937Y021447D01*
X043910Y021208D02*
X043280Y021208D01*
X043280Y020970D02*
X043947Y020970D01*
X044063Y020731D02*
X043280Y020731D01*
X043280Y020493D02*
X044360Y020493D01*
X045080Y020493D02*
X047269Y020493D01*
X047240Y020521D02*
X047521Y020240D01*
X047720Y020240D01*
X047720Y020720D01*
X047720Y020720D01*
X047720Y020720D01*
X047240Y020720D01*
X047240Y020521D01*
X047240Y020731D02*
X045377Y020731D01*
X044720Y021220D02*
X044970Y021470D01*
X048220Y021470D01*
X047922Y022162D02*
X043280Y022162D01*
X043280Y020254D02*
X047507Y020254D01*
X047720Y020254D02*
X047720Y020254D01*
X047933Y020254D02*
X048196Y020254D01*
X047720Y020493D02*
X047720Y020493D01*
X048720Y020720D02*
X054129Y020720D01*
X055720Y020811D01*
X055720Y019629D02*
X050629Y019629D01*
X050220Y019220D01*
X051030Y019062D02*
X054984Y019062D01*
X050024Y020016D02*
X046416Y020016D01*
X046024Y020016D02*
X043280Y020016D01*
X042160Y020016D02*
X039440Y020016D01*
X039440Y020254D02*
X042160Y020254D01*
X042160Y019777D02*
X039440Y019777D01*
X039440Y019539D02*
X042160Y019539D01*
X042160Y019300D02*
X039440Y019300D01*
X039440Y019062D02*
X042160Y019062D01*
X042160Y018823D02*
X039440Y018823D01*
X039440Y018585D02*
X042160Y018585D01*
X042160Y018346D02*
X039440Y018346D01*
X039440Y018108D02*
X042160Y018108D01*
X042160Y017869D02*
X039440Y017869D01*
X039440Y017631D02*
X042160Y017631D01*
X042160Y017392D02*
X039440Y017392D01*
X039440Y017154D02*
X042160Y017154D01*
X042160Y016915D02*
X041159Y016915D01*
X041179Y016907D02*
X040881Y017030D01*
X040559Y017030D01*
X040261Y016907D01*
X040033Y016679D01*
X039910Y016381D01*
X039910Y016059D01*
X040033Y015761D01*
X040261Y015533D01*
X040559Y015410D01*
X040881Y015410D01*
X041179Y015533D01*
X041407Y015761D01*
X041530Y016059D01*
X041530Y016381D01*
X041407Y016679D01*
X041179Y016907D01*
X041408Y016677D02*
X042160Y016677D01*
X042160Y016438D02*
X041506Y016438D01*
X041530Y016200D02*
X042160Y016200D01*
X042160Y015961D02*
X041489Y015961D01*
X041368Y015723D02*
X042160Y015723D01*
X042160Y015484D02*
X041060Y015484D01*
X040380Y015484D02*
X038002Y015484D01*
X037764Y015246D02*
X042160Y015246D01*
X042160Y015007D02*
X037525Y015007D01*
X037287Y014769D02*
X042160Y014769D01*
X042160Y014530D02*
X037048Y014530D01*
X036810Y014292D02*
X042160Y014292D01*
X042160Y014053D02*
X036571Y014053D01*
X036333Y013815D02*
X042160Y013815D01*
X042160Y013576D02*
X036094Y013576D01*
X035856Y013338D02*
X042160Y013338D01*
X042160Y013099D02*
X035617Y013099D01*
X035379Y012861D02*
X042160Y012861D01*
X042160Y012622D02*
X035140Y012622D01*
X034902Y012384D02*
X042160Y012384D01*
X042160Y012145D02*
X036087Y012145D01*
X036325Y011907D02*
X040261Y011907D01*
X040033Y011679D01*
X039910Y011381D01*
X039910Y011059D01*
X040033Y010761D01*
X040261Y010533D01*
X040559Y010410D01*
X040881Y010410D01*
X041179Y010533D01*
X041407Y010761D01*
X041530Y011059D01*
X041530Y011381D01*
X041407Y011679D01*
X041179Y011907D01*
X040881Y012030D01*
X040559Y012030D01*
X040261Y011907D01*
X040029Y011668D02*
X036564Y011668D01*
X036802Y011430D02*
X039930Y011430D01*
X039910Y011191D02*
X037041Y011191D01*
X037279Y010953D02*
X039954Y010953D01*
X040080Y010714D02*
X037518Y010714D01*
X037756Y010476D02*
X040401Y010476D01*
X041039Y010476D02*
X042215Y010476D01*
X042160Y010714D02*
X041360Y010714D01*
X041486Y010953D02*
X042160Y010953D01*
X042160Y011191D02*
X041530Y011191D01*
X041510Y011430D02*
X042160Y011430D01*
X042160Y011668D02*
X041411Y011668D01*
X041179Y011907D02*
X042160Y011907D01*
X043280Y011907D02*
X044261Y011907D01*
X044033Y011679D01*
X043910Y011381D01*
X043910Y011059D01*
X044033Y010761D01*
X044261Y010533D01*
X044559Y010410D01*
X044881Y010410D01*
X045179Y010533D01*
X045407Y010761D01*
X045468Y010910D01*
X047240Y010910D01*
X047240Y010720D01*
X047720Y010720D01*
X047720Y010240D01*
X047919Y010240D01*
X048064Y010386D01*
X048430Y010020D01*
X049010Y010020D01*
X049240Y010251D01*
X055019Y010251D01*
X054997Y010229D01*
X054981Y010189D01*
X050518Y010189D01*
X050312Y010104D01*
X050238Y010030D01*
X050059Y010030D01*
X049761Y009907D01*
X049533Y009679D01*
X049410Y009381D01*
X049410Y009059D01*
X049533Y008761D01*
X049761Y008533D01*
X050059Y008410D01*
X050381Y008410D01*
X050679Y008533D01*
X050907Y008761D01*
X051030Y009059D01*
X051030Y009069D01*
X054981Y009069D01*
X054997Y009030D01*
X055121Y008906D01*
X055282Y008839D01*
X056158Y008839D01*
X056319Y008906D01*
X056443Y009030D01*
X056510Y009192D01*
X056510Y010067D01*
X056443Y010229D01*
X056349Y010323D01*
X056390Y010363D01*
X056510Y010653D01*
X056510Y010968D01*
X056390Y011258D01*
X056167Y011480D01*
X055877Y011601D01*
X055563Y011601D01*
X055273Y011480D01*
X055163Y011371D01*
X049059Y011371D01*
X049010Y011420D01*
X048920Y011420D01*
X048920Y011760D01*
X048510Y012170D01*
X047930Y012170D01*
X047790Y012030D01*
X044559Y012030D01*
X044261Y011907D01*
X044029Y011668D02*
X043280Y011668D01*
X043280Y011430D02*
X043930Y011430D01*
X043910Y011191D02*
X043280Y011191D01*
X043280Y010953D02*
X043954Y010953D01*
X044080Y010714D02*
X043518Y010714D01*
X043756Y010476D02*
X044401Y010476D01*
X043995Y010237D02*
X048213Y010237D01*
X047720Y010240D02*
X047720Y010720D01*
X047720Y010720D01*
X047720Y010720D01*
X047240Y010720D01*
X047240Y010521D01*
X047521Y010240D01*
X047720Y010240D01*
X047720Y010476D02*
X047720Y010476D01*
X047720Y010714D02*
X047720Y010714D01*
X047240Y010714D02*
X045360Y010714D01*
X045039Y010476D02*
X047286Y010476D01*
X046826Y009760D02*
X049614Y009760D01*
X049468Y009522D02*
X046972Y009522D01*
X047030Y009283D02*
X049410Y009283D01*
X049416Y009045D02*
X047024Y009045D01*
X046925Y008806D02*
X049515Y008806D01*
X049727Y008568D02*
X046713Y008568D01*
X046457Y009999D02*
X049983Y009999D01*
X049227Y010237D02*
X055005Y010237D01*
X055720Y010811D02*
X048811Y010811D01*
X048720Y010720D01*
X048920Y011430D02*
X055222Y011430D01*
X056218Y011430D02*
X057200Y011430D01*
X057200Y011668D02*
X048920Y011668D01*
X048773Y011907D02*
X057200Y011907D01*
X057200Y012145D02*
X048535Y012145D01*
X047905Y012145D02*
X043280Y012145D01*
X043280Y012384D02*
X057200Y012384D01*
X057200Y012622D02*
X043280Y012622D01*
X043280Y012861D02*
X057200Y012861D01*
X057200Y013099D02*
X043280Y013099D01*
X043280Y013338D02*
X057200Y013338D01*
X057200Y013576D02*
X050722Y013576D01*
X051028Y014053D02*
X054988Y014053D01*
X055720Y014629D02*
X050629Y014629D01*
X049410Y014292D02*
X047030Y014292D01*
X047028Y014053D02*
X049412Y014053D01*
X049511Y013815D02*
X046929Y013815D01*
X046722Y013576D02*
X049718Y013576D01*
X047720Y015484D02*
X047720Y015484D01*
X047277Y015484D02*
X045060Y015484D01*
X045368Y015723D02*
X047240Y015723D01*
X046003Y015007D02*
X043280Y015007D01*
X042720Y014220D02*
X042720Y019220D01*
X046220Y019220D01*
X046965Y019539D02*
X049475Y019539D01*
X049410Y019300D02*
X047030Y019300D01*
X047030Y019062D02*
X049410Y019062D01*
X049508Y018823D02*
X046932Y018823D01*
X046730Y018585D02*
X049710Y018585D01*
X049632Y019777D02*
X046808Y019777D01*
X045710Y018585D02*
X043280Y018585D01*
X042720Y019220D02*
X042720Y024539D01*
X042901Y024720D01*
X042420Y025501D02*
X042199Y025501D01*
X041462Y025501D02*
X041231Y025501D01*
X041150Y025740D02*
X040992Y025740D01*
X041018Y025978D02*
X040754Y025978D01*
X040960Y026217D02*
X040515Y026217D01*
X040277Y026455D02*
X040960Y026455D01*
X040960Y026694D02*
X040038Y026694D01*
X039800Y026932D02*
X040960Y026932D01*
X040960Y027171D02*
X039561Y027171D01*
X039323Y027409D02*
X040996Y027409D01*
X041097Y027648D02*
X039084Y027648D01*
X038693Y026455D02*
X036984Y026455D01*
X037040Y026217D02*
X038932Y026217D01*
X039170Y025978D02*
X036980Y025978D01*
X036220Y026220D02*
X035400Y026220D01*
X035456Y026455D02*
X030758Y026455D01*
X030820Y026694D02*
X035400Y026694D01*
X035238Y026932D02*
X030782Y026932D01*
X030618Y027171D02*
X035180Y027171D01*
X035197Y027409D02*
X028691Y027409D01*
X027749Y027409D02*
X027691Y027409D01*
X026749Y027409D02*
X026691Y027409D01*
X025749Y027409D02*
X025691Y027409D01*
X024749Y027409D02*
X022920Y027409D01*
X022920Y027648D02*
X033521Y027648D01*
X033220Y027675D02*
X033220Y028220D01*
X033220Y028220D01*
X033220Y028220D01*
X032675Y028220D01*
X032675Y028177D01*
X032688Y028092D01*
X032715Y028011D01*
X032754Y027934D01*
X032804Y027865D01*
X032865Y027804D01*
X032934Y027754D01*
X033011Y027715D01*
X033092Y027688D01*
X033177Y027675D01*
X033220Y027675D01*
X033220Y027886D02*
X033220Y027886D01*
X033220Y028125D02*
X033220Y028125D01*
X032789Y027886D02*
X023065Y027886D01*
X023200Y028125D02*
X032683Y028125D01*
X032693Y028363D02*
X023200Y028363D01*
X023200Y028220D02*
X022720Y028220D01*
X030220Y028220D01*
X032831Y028602D02*
X023017Y028602D01*
X023200Y028220D02*
X022720Y028220D01*
X022720Y028220D01*
X022220Y027470D02*
X022220Y025220D01*
X024720Y022720D01*
X025220Y022720D01*
X024248Y022401D02*
X022789Y022401D01*
X022850Y022639D02*
X024009Y022639D01*
X023771Y022878D02*
X022850Y022878D01*
X022758Y023116D02*
X023532Y023116D01*
X023294Y023355D02*
X022576Y023355D01*
X022817Y023832D02*
X016280Y023832D01*
X016280Y023593D02*
X023055Y023593D01*
X022578Y024070D02*
X016162Y024070D01*
X015923Y024309D02*
X022340Y024309D01*
X022101Y024547D02*
X015685Y024547D01*
X015446Y024786D02*
X021863Y024786D01*
X021903Y024745D02*
X021903Y024745D01*
X021695Y025024D02*
X018959Y025024D01*
X019083Y025096D02*
X019344Y025357D01*
X019529Y025678D01*
X019625Y026035D01*
X019625Y026405D01*
X019529Y026762D01*
X019344Y027083D01*
X019083Y027344D01*
X018762Y027529D01*
X018405Y027625D01*
X018035Y027625D01*
X017678Y027529D01*
X017357Y027344D01*
X017096Y027083D01*
X016911Y026762D01*
X016815Y026405D01*
X016815Y026035D01*
X016911Y025678D01*
X017096Y025357D01*
X017357Y025096D01*
X017678Y024911D01*
X018035Y024815D01*
X018405Y024815D01*
X018762Y024911D01*
X019083Y025096D01*
X019249Y025263D02*
X021660Y025263D01*
X021660Y025501D02*
X019427Y025501D01*
X019546Y025740D02*
X021660Y025740D01*
X021660Y025978D02*
X019610Y025978D01*
X019625Y026217D02*
X021660Y026217D01*
X021660Y026455D02*
X019612Y026455D01*
X019548Y026694D02*
X021660Y026694D01*
X021660Y026932D02*
X019431Y026932D01*
X019256Y027171D02*
X021530Y027171D01*
X021520Y027409D02*
X018971Y027409D01*
X017469Y027409D02*
X013780Y027409D01*
X013780Y027171D02*
X017184Y027171D01*
X017009Y026932D02*
X013780Y026932D01*
X013780Y026694D02*
X016892Y026694D01*
X016828Y026455D02*
X013780Y026455D01*
X014015Y026217D02*
X016815Y026217D01*
X016830Y025978D02*
X014254Y025978D01*
X014492Y025740D02*
X016894Y025740D01*
X017013Y025501D02*
X014731Y025501D01*
X014969Y025263D02*
X017191Y025263D01*
X017481Y025024D02*
X015208Y025024D01*
X014340Y024309D02*
X013923Y024309D01*
X014101Y024547D02*
X013685Y024547D01*
X013863Y024786D02*
X013446Y024786D01*
X013624Y025024D02*
X013208Y025024D01*
X013386Y025263D02*
X012969Y025263D01*
X013147Y025501D02*
X012731Y025501D01*
X012909Y025740D02*
X012492Y025740D01*
X012745Y025903D02*
X012903Y025745D01*
X015160Y023488D01*
X015160Y022174D01*
X015112Y022126D01*
X015003Y021863D01*
X015003Y021577D01*
X015112Y021314D01*
X015160Y021266D01*
X015160Y020174D01*
X015160Y020493D02*
X014280Y020493D01*
X014280Y020731D02*
X015160Y020731D01*
X015160Y020970D02*
X014280Y020970D01*
X014280Y021208D02*
X015160Y021208D01*
X015057Y021447D02*
X014383Y021447D01*
X014437Y021685D02*
X015003Y021685D01*
X015028Y021924D02*
X014412Y021924D01*
X014292Y022162D02*
X015148Y022162D01*
X015160Y022401D02*
X014280Y022401D01*
X014280Y022639D02*
X015160Y022639D01*
X015160Y022878D02*
X014280Y022878D01*
X014280Y023116D02*
X015160Y023116D01*
X015160Y023355D02*
X014280Y023355D01*
X014280Y023593D02*
X015055Y023593D01*
X014817Y023832D02*
X014280Y023832D01*
X014162Y024070D02*
X014578Y024070D01*
X013720Y023720D02*
X011220Y026220D01*
X011220Y028220D01*
X011958Y027886D02*
X012660Y027886D01*
X012660Y027648D02*
X011793Y027648D01*
X011780Y027409D02*
X012660Y027409D01*
X012660Y027171D02*
X011780Y027171D01*
X011780Y026932D02*
X012660Y026932D01*
X012660Y026694D02*
X011780Y026694D01*
X011780Y026455D02*
X012660Y026455D01*
X012660Y026217D02*
X012015Y026217D01*
X012254Y025978D02*
X012714Y025978D01*
X012745Y025903D02*
X012660Y026109D01*
X012660Y028831D01*
X012745Y029037D01*
X012903Y029195D01*
X012903Y029195D01*
X013403Y029695D01*
X013415Y029700D01*
X000740Y029700D01*
X000740Y029556D02*
X013264Y029556D01*
X013025Y029317D02*
X000740Y029317D01*
X000740Y029079D02*
X012787Y029079D01*
X012664Y028840D02*
X011745Y028840D01*
X011939Y028602D02*
X012660Y028602D01*
X012660Y028363D02*
X012030Y028363D01*
X012030Y028125D02*
X012660Y028125D01*
X013780Y028125D02*
X014410Y028125D01*
X014410Y028363D02*
X013780Y028363D01*
X013893Y028602D02*
X014501Y028602D01*
X015220Y028220D02*
X021720Y028220D01*
X021303Y027648D02*
X015793Y027648D01*
X014647Y027648D02*
X013780Y027648D01*
X013780Y027886D02*
X014482Y027886D01*
X010647Y027648D02*
X000740Y027648D01*
X000740Y027886D02*
X010482Y027886D01*
X010410Y028125D02*
X000740Y028125D01*
X000740Y028363D02*
X010410Y028363D01*
X010501Y028602D02*
X000740Y028602D01*
X000740Y028840D02*
X010695Y028840D01*
X010660Y027409D02*
X000740Y027409D01*
X000740Y027171D02*
X010660Y027171D01*
X010660Y026932D02*
X000740Y026932D01*
X000740Y026694D02*
X010660Y026694D01*
X013720Y023720D02*
X013720Y021720D01*
X013720Y019720D01*
X014437Y019777D02*
X015003Y019777D01*
X015019Y019539D02*
X014421Y019539D01*
X014314Y019300D02*
X015126Y019300D01*
X015436Y019062D02*
X014004Y019062D01*
X016004Y019062D02*
X020148Y019062D01*
X019460Y019070D02*
X019460Y019720D01*
X019460Y019720D01*
X019460Y019720D01*
X019460Y020370D01*
X019417Y020370D01*
X019333Y020359D01*
X019251Y020337D01*
X019172Y020304D01*
X019098Y020262D01*
X018880Y020016D02*
X016374Y020016D01*
X016437Y019777D02*
X018812Y019777D01*
X018810Y019720D02*
X018810Y019677D01*
X018821Y019593D01*
X018843Y019511D01*
X018876Y019432D01*
X018918Y019358D01*
X018970Y019291D01*
X019031Y019230D01*
X019098Y019178D01*
X019172Y019136D01*
X019251Y019103D01*
X019333Y019081D01*
X019417Y019070D01*
X019460Y019070D01*
X019460Y019300D02*
X019460Y019300D01*
X019460Y019539D02*
X019460Y019539D01*
X019460Y019720D02*
X018810Y019720D01*
X018836Y019539D02*
X016421Y019539D01*
X016314Y019300D02*
X018963Y019300D01*
X019460Y019777D02*
X019460Y019777D01*
X019460Y020016D02*
X019460Y020016D01*
X019460Y020254D02*
X019460Y020254D01*
X019832Y020254D02*
X020024Y020254D01*
X021980Y019720D02*
X021980Y018944D01*
X021548Y018585D02*
X003796Y018585D01*
X003796Y018346D02*
X019701Y018346D01*
X019761Y018407D02*
X019533Y018179D01*
X019410Y017881D01*
X019410Y017702D01*
X018988Y017280D01*
X010109Y017280D01*
X009903Y017195D01*
X009745Y017037D01*
X009660Y016831D01*
X009660Y016588D01*
X009562Y016351D01*
X009562Y016089D01*
X009662Y015847D01*
X009847Y015662D01*
X009999Y015599D01*
X009990Y015595D01*
X009935Y015554D01*
X009886Y015505D01*
X009845Y015450D01*
X009814Y015388D01*
X009793Y015323D01*
X009782Y015254D01*
X009782Y015220D01*
X009782Y015186D01*
X009793Y015117D01*
X009814Y015052D01*
X009845Y014990D01*
X009886Y014935D01*
X009935Y014886D01*
X009990Y014845D01*
X010052Y014814D01*
X010117Y014793D01*
X010186Y014782D01*
X010220Y014782D01*
X010254Y014782D01*
X010323Y014793D01*
X010388Y014814D01*
X010450Y014845D01*
X010505Y014886D01*
X010554Y014935D01*
X010595Y014990D01*
X010626Y015052D01*
X010629Y015062D01*
X010851Y015062D01*
X011093Y015162D01*
X011278Y015347D01*
X011378Y015589D01*
X011378Y015851D01*
X011278Y016093D01*
X011211Y016160D01*
X019331Y016160D01*
X019537Y016245D01*
X020202Y016910D01*
X020381Y016910D01*
X020679Y017033D01*
X020907Y017261D01*
X021030Y017559D01*
X021030Y017881D01*
X020907Y018179D01*
X020679Y018407D01*
X020381Y018530D01*
X020059Y018530D01*
X019761Y018407D01*
X019504Y018108D02*
X003796Y018108D01*
X003796Y017869D02*
X019410Y017869D01*
X019339Y017631D02*
X003796Y017631D01*
X003796Y017392D02*
X019100Y017392D01*
X019220Y016720D02*
X020220Y017720D01*
X020936Y018108D02*
X022025Y018108D01*
X021786Y018346D02*
X020739Y018346D01*
X021030Y017869D02*
X022263Y017869D01*
X022502Y017631D02*
X021030Y017631D01*
X020961Y017392D02*
X022740Y017392D01*
X022979Y017154D02*
X020799Y017154D01*
X020393Y016915D02*
X023217Y016915D01*
X023456Y016677D02*
X019968Y016677D01*
X019730Y016438D02*
X023694Y016438D01*
X023933Y016200D02*
X019427Y016200D01*
X019220Y016720D02*
X010220Y016720D01*
X010220Y016220D01*
X009615Y015961D02*
X003796Y015961D01*
X003796Y015723D02*
X009787Y015723D01*
X009870Y015484D02*
X003796Y015484D01*
X003796Y015246D02*
X009782Y015246D01*
X009782Y015220D02*
X010220Y015220D01*
X010220Y014720D01*
X018720Y014720D01*
X019481Y014053D02*
X003796Y014053D01*
X003796Y013815D02*
X019410Y013815D01*
X019410Y013576D02*
X003796Y013576D01*
X003796Y013338D02*
X019502Y013338D01*
X019695Y013099D02*
X003796Y013099D01*
X003796Y014292D02*
X019646Y014292D01*
X020794Y014292D02*
X025857Y014292D01*
X025663Y014053D02*
X026614Y014053D01*
X026489Y013815D02*
X025759Y013815D01*
X025741Y013576D02*
X026502Y013576D01*
X026622Y013338D02*
X025593Y013338D01*
X024847Y013338D02*
X024174Y013338D01*
X024699Y013576D02*
X021030Y013576D01*
X021030Y013815D02*
X024681Y013815D01*
X024777Y014053D02*
X020959Y014053D01*
X020220Y012622D02*
X020220Y012622D01*
X020220Y012384D02*
X020220Y012384D01*
X020220Y012145D02*
X020220Y012145D01*
X020220Y011907D02*
X020220Y011907D01*
X021477Y009999D02*
X024207Y009999D01*
X024390Y010237D02*
X024445Y010237D01*
X024553Y010476D02*
X024684Y010476D01*
X024600Y010714D02*
X024922Y010714D01*
X024744Y010953D02*
X025161Y010953D01*
X025720Y010720D02*
X022720Y007720D01*
X022720Y005720D01*
X022160Y006421D02*
X015973Y006421D01*
X016030Y006660D02*
X022160Y006660D01*
X022160Y006898D02*
X016023Y006898D01*
X015924Y007137D02*
X022160Y007137D01*
X022160Y007375D02*
X015711Y007375D01*
X015421Y008568D02*
X014019Y008568D01*
X014320Y008806D02*
X015120Y008806D01*
X015016Y009045D02*
X014424Y009045D01*
X014437Y009283D02*
X015003Y009283D01*
X015069Y009522D02*
X014371Y009522D01*
X014280Y009760D02*
X015160Y009760D01*
X015160Y009999D02*
X014280Y009999D01*
X014280Y010237D02*
X015160Y010237D01*
X015160Y010476D02*
X014280Y010476D01*
X014280Y010714D02*
X015160Y010714D01*
X015055Y010953D02*
X014385Y010953D01*
X014437Y011191D02*
X015003Y011191D01*
X015031Y011430D02*
X014409Y011430D01*
X014286Y011668D02*
X015154Y011668D01*
X015720Y011220D02*
X015720Y009220D01*
X016371Y009522D02*
X023730Y009522D01*
X023968Y009760D02*
X016280Y009760D01*
X016437Y009283D02*
X023491Y009283D01*
X023253Y009045D02*
X016424Y009045D01*
X016320Y008806D02*
X023014Y008806D01*
X022776Y008568D02*
X016019Y008568D01*
X013720Y009220D02*
X013720Y011220D01*
X010220Y014782D02*
X010220Y015220D01*
X010220Y015220D01*
X010220Y015220D01*
X010220Y014782D01*
X010220Y015007D02*
X010220Y015007D01*
X010220Y015220D02*
X009782Y015220D01*
X009837Y015007D02*
X003796Y015007D01*
X003796Y014769D02*
X025372Y014769D01*
X025615Y014530D02*
X003796Y014530D01*
X003796Y016200D02*
X009562Y016200D01*
X009598Y016438D02*
X003796Y016438D01*
X003796Y016677D02*
X009660Y016677D01*
X009695Y016915D02*
X003796Y016915D01*
X003796Y017154D02*
X009862Y017154D01*
X011333Y015961D02*
X024171Y015961D01*
X024410Y015723D02*
X011378Y015723D01*
X011335Y015484D02*
X024483Y015484D01*
X024597Y015246D02*
X011176Y015246D01*
X010603Y015007D02*
X024904Y015007D01*
X025220Y014053D02*
X025220Y014053D01*
X025220Y013815D02*
X025220Y013815D01*
X023720Y012720D02*
X027220Y012720D01*
X028720Y012220D02*
X029220Y012720D01*
X030220Y012720D01*
X030220Y011720D02*
X035720Y011720D01*
X039220Y008220D01*
X039981Y008806D02*
X043842Y008806D01*
X043604Y009045D02*
X039187Y009045D01*
X038949Y009283D02*
X043365Y009283D01*
X043127Y009522D02*
X038710Y009522D01*
X038472Y009760D02*
X042888Y009760D01*
X042650Y009999D02*
X038233Y009999D01*
X037995Y010237D02*
X042411Y010237D01*
X044233Y009999D02*
X045983Y009999D01*
X044720Y011220D02*
X044970Y011470D01*
X048220Y011470D01*
X050220Y009220D02*
X050629Y009629D01*
X055720Y009629D01*
X056510Y009522D02*
X057200Y009522D01*
X057200Y009760D02*
X056510Y009760D01*
X056510Y009999D02*
X057200Y009999D01*
X057200Y010237D02*
X056435Y010237D01*
X056436Y010476D02*
X057200Y010476D01*
X057200Y010714D02*
X056510Y010714D01*
X056510Y010953D02*
X057200Y010953D01*
X057200Y011191D02*
X056417Y011191D01*
X056510Y009283D02*
X057200Y009283D01*
X057200Y009045D02*
X056449Y009045D01*
X057200Y008806D02*
X050925Y008806D01*
X051024Y009045D02*
X054991Y009045D01*
X057200Y008568D02*
X050713Y008568D01*
X045718Y013576D02*
X043280Y013576D01*
X040072Y015723D02*
X038241Y015723D01*
X038479Y015961D02*
X039951Y015961D01*
X039910Y016200D02*
X038718Y016200D01*
X038956Y016438D02*
X039934Y016438D01*
X040032Y016677D02*
X039195Y016677D01*
X039373Y016915D02*
X040281Y016915D01*
X038000Y017631D02*
X031180Y017631D01*
X031176Y017869D02*
X038000Y017869D01*
X038000Y018108D02*
X037872Y018108D01*
X037128Y018108D02*
X031077Y018108D01*
X031083Y018346D02*
X034602Y018346D01*
X034631Y018325D02*
X034556Y018380D01*
X034490Y018446D01*
X034435Y018521D01*
X034393Y018604D01*
X034365Y018692D01*
X034350Y018784D01*
X034350Y018830D01*
X034940Y018830D01*
X035530Y018830D01*
X035530Y018876D01*
X035515Y018968D01*
X035487Y019056D01*
X035445Y019139D01*
X035390Y019214D01*
X035324Y019280D01*
X035249Y019335D01*
X035166Y019377D01*
X035078Y019405D01*
X034986Y019420D01*
X034940Y019420D01*
X034940Y018830D01*
X034940Y018830D01*
X034940Y018830D01*
X035530Y018830D01*
X035530Y018784D01*
X035515Y018692D01*
X035487Y018604D01*
X035445Y018521D01*
X035390Y018446D01*
X035324Y018380D01*
X035249Y018325D01*
X035166Y018283D01*
X035078Y018255D01*
X034986Y018240D01*
X034940Y018240D01*
X034940Y018830D01*
X034940Y018830D01*
X034940Y018830D01*
X034940Y019420D01*
X034894Y019420D01*
X034802Y019405D01*
X034714Y019377D01*
X034631Y019335D01*
X034556Y019280D01*
X034490Y019214D01*
X034435Y019139D01*
X034393Y019056D01*
X034365Y018968D01*
X034350Y018876D01*
X034350Y018830D01*
X034940Y018830D01*
X034940Y018240D01*
X034894Y018240D01*
X034802Y018255D01*
X034714Y018283D01*
X034631Y018325D01*
X034940Y018346D02*
X034940Y018346D01*
X034940Y018585D02*
X034940Y018585D01*
X034940Y018823D02*
X034940Y018823D01*
X034940Y019062D02*
X034940Y019062D01*
X034940Y019300D02*
X034940Y019300D01*
X035297Y019300D02*
X036825Y019300D01*
X036719Y019062D02*
X035484Y019062D01*
X035530Y018823D02*
X036690Y018823D01*
X036725Y018585D02*
X035477Y018585D01*
X035278Y018346D02*
X036838Y018346D01*
X037094Y019539D02*
X031163Y019539D01*
X031180Y019777D02*
X038000Y019777D01*
X038000Y019539D02*
X037906Y019539D01*
X036949Y020016D02*
X035491Y020016D01*
X035669Y020254D02*
X036771Y020254D01*
X036690Y020493D02*
X035750Y020493D01*
X035750Y020731D02*
X036690Y020731D01*
X036772Y020970D02*
X035668Y020970D01*
X035487Y021208D02*
X036953Y021208D01*
X037609Y021685D02*
X034831Y021685D01*
X034842Y021447D02*
X037971Y021447D01*
X037466Y021924D02*
X034974Y021924D01*
X035030Y022162D02*
X037260Y022162D01*
X037021Y022401D02*
X035022Y022401D01*
X034923Y022639D02*
X036783Y022639D01*
X036583Y022878D02*
X034708Y022878D01*
X033732Y022878D02*
X032400Y022878D01*
X032485Y023116D02*
X036500Y023116D01*
X035220Y024220D02*
X034220Y024220D01*
X034922Y024786D02*
X034994Y024786D01*
X035460Y025978D02*
X028571Y025978D01*
X028876Y026217D02*
X028892Y026217D01*
X029220Y026217D02*
X029220Y026217D01*
X029220Y026455D02*
X029220Y026455D01*
X029548Y026217D02*
X029892Y026217D01*
X031015Y025501D02*
X027780Y025501D01*
X027780Y025263D02*
X030955Y025263D01*
X030967Y025024D02*
X027780Y025024D01*
X027780Y024786D02*
X031065Y024786D01*
X031308Y024547D02*
X027780Y024547D01*
X027780Y024309D02*
X032682Y024309D01*
X032696Y024070D02*
X027780Y024070D01*
X027780Y023832D02*
X031234Y023832D01*
X031040Y023593D02*
X027780Y023593D01*
X027780Y023355D02*
X030955Y023355D01*
X030955Y023116D02*
X027780Y023116D01*
X027780Y022878D02*
X031040Y022878D01*
X031720Y023236D02*
X031720Y022220D01*
X028720Y022220D01*
X027220Y020720D01*
X028004Y020254D02*
X029436Y020254D01*
X029325Y020016D02*
X028115Y020016D01*
X028180Y019777D02*
X029260Y019777D01*
X029277Y019539D02*
X028163Y019539D01*
X028050Y019300D02*
X029390Y019300D01*
X029344Y019062D02*
X028096Y019062D01*
X028180Y018823D02*
X029260Y018823D01*
X029260Y018585D02*
X028180Y018585D01*
X028083Y018346D02*
X029357Y018346D01*
X029363Y018108D02*
X028077Y018108D01*
X028176Y017869D02*
X029264Y017869D01*
X029260Y017631D02*
X028180Y017631D01*
X028102Y017392D02*
X029338Y017392D01*
X029404Y017154D02*
X028036Y017154D01*
X028157Y016915D02*
X029283Y016915D01*
X029260Y016677D02*
X028180Y016677D01*
X028121Y016438D02*
X029319Y016438D01*
X029450Y016200D02*
X027990Y016200D01*
X028138Y015961D02*
X029302Y015961D01*
X029260Y015723D02*
X028180Y015723D01*
X028140Y015484D02*
X029300Y015484D01*
X029445Y015246D02*
X027995Y015246D01*
X028119Y015007D02*
X029575Y015007D01*
X029482Y014769D02*
X028180Y014769D01*
X028159Y014530D02*
X029518Y014530D01*
X029542Y014292D02*
X028041Y014292D01*
X027220Y013815D02*
X027220Y013815D01*
X027220Y013576D02*
X027220Y013576D01*
X028720Y012220D02*
X028720Y007720D01*
X029720Y006720D01*
X032220Y006720D01*
X033220Y005720D01*
X035220Y005720D01*
X035220Y004220D01*
X034465Y004513D02*
X031975Y004513D01*
X032030Y004275D02*
X034410Y004275D01*
X034419Y004036D02*
X032021Y004036D01*
X031922Y003798D02*
X034518Y003798D01*
X034735Y003559D02*
X031705Y003559D01*
X030735Y003559D02*
X029351Y003559D01*
X029112Y003321D02*
X057200Y003321D01*
X057200Y003559D02*
X035705Y003559D01*
X035922Y003798D02*
X038617Y003798D01*
X038433Y004036D02*
X036021Y004036D01*
X036030Y004275D02*
X038402Y004275D01*
X038490Y004513D02*
X035975Y004513D01*
X035834Y004752D02*
X036897Y004752D01*
X036658Y004990D02*
X035780Y004990D01*
X035874Y005229D02*
X036420Y005229D01*
X036181Y005467D02*
X035992Y005467D01*
X037220Y005220D02*
X033720Y008720D01*
X030220Y008720D01*
X030220Y009720D02*
X034220Y009720D01*
X037720Y006220D01*
X039220Y006220D01*
X039120Y007220D02*
X038220Y007220D01*
X034720Y010720D01*
X030220Y010720D01*
X027220Y010720D02*
X025720Y010720D01*
X025720Y009720D02*
X023720Y007720D01*
X023720Y004720D01*
X024720Y004720D02*
X024720Y003720D01*
X025220Y003220D01*
X028220Y003220D01*
X029220Y004220D01*
X031220Y004220D01*
X031834Y004752D02*
X034606Y004752D01*
X034660Y004990D02*
X031574Y004990D01*
X031874Y005229D02*
X032943Y005229D01*
X032681Y005467D02*
X031992Y005467D01*
X032030Y005706D02*
X032443Y005706D01*
X032204Y005944D02*
X032004Y005944D01*
X031220Y005720D02*
X029720Y005720D01*
X028720Y004720D01*
X025720Y004720D01*
X025720Y007220D01*
X026220Y007720D01*
X027220Y007720D01*
X027220Y008720D02*
X025720Y008720D01*
X024720Y007720D01*
X024720Y004720D01*
X024328Y003321D02*
X024280Y003321D01*
X024269Y003082D02*
X024566Y003082D01*
X024805Y002844D02*
X024135Y002844D01*
X023897Y002605D02*
X057200Y002605D01*
X057200Y002367D02*
X026005Y002367D01*
X026033Y002346D02*
X025972Y002391D01*
X025904Y002425D01*
X025832Y002448D01*
X025758Y002460D01*
X025720Y002460D01*
X025720Y001720D01*
X025720Y001720D01*
X026200Y001720D01*
X026200Y002018D01*
X026188Y002092D01*
X026165Y002164D01*
X026131Y002232D01*
X026086Y002293D01*
X026033Y002346D01*
X026177Y002128D02*
X057200Y002128D01*
X057200Y001890D02*
X026200Y001890D01*
X026200Y001720D02*
X025720Y001720D01*
X025720Y001720D01*
X025720Y001720D01*
X025240Y001720D01*
X025240Y002018D01*
X025252Y002092D01*
X025275Y002164D01*
X025309Y002232D01*
X025354Y002293D01*
X025407Y002346D01*
X025468Y002391D01*
X025536Y002425D01*
X025608Y002448D01*
X025682Y002460D01*
X025720Y002460D01*
X025720Y001720D01*
X025720Y000980D01*
X025758Y000980D01*
X025832Y000992D01*
X025904Y001015D01*
X025972Y001049D01*
X026033Y001094D01*
X026086Y001147D01*
X026131Y001208D01*
X026165Y001276D01*
X026188Y001348D01*
X026200Y001422D01*
X026200Y001720D01*
X026200Y001651D02*
X057200Y001651D01*
X057200Y001413D02*
X026198Y001413D01*
X026106Y001174D02*
X057200Y001174D01*
X057200Y000936D02*
X000740Y000936D01*
X000740Y001174D02*
X022334Y001174D01*
X022354Y001147D02*
X022407Y001094D01*
X022468Y001049D01*
X022536Y001015D01*
X022608Y000992D01*
X022682Y000980D01*
X022720Y000980D01*
X022758Y000980D01*
X022832Y000992D01*
X022904Y001015D01*
X022972Y001049D01*
X023033Y001094D01*
X023086Y001147D01*
X023131Y001208D01*
X023165Y001276D01*
X023188Y001348D01*
X023200Y001422D01*
X023200Y001720D01*
X022720Y001720D01*
X022720Y001720D01*
X022720Y000980D01*
X022720Y001720D01*
X022720Y001720D01*
X022720Y001720D01*
X022240Y001720D01*
X022240Y001422D01*
X022252Y001348D01*
X022275Y001276D01*
X022309Y001208D01*
X022354Y001147D01*
X022242Y001413D02*
X000740Y001413D01*
X000740Y001651D02*
X022240Y001651D01*
X022240Y001890D02*
X000740Y001890D01*
X000740Y002128D02*
X022263Y002128D01*
X022720Y001651D02*
X022720Y001651D01*
X022720Y001413D02*
X022720Y001413D01*
X022720Y001174D02*
X022720Y001174D01*
X023106Y001174D02*
X023334Y001174D01*
X023354Y001147D02*
X023407Y001094D01*
X023468Y001049D01*
X023536Y001015D01*
X023608Y000992D01*
X023682Y000980D01*
X023720Y000980D01*
X023758Y000980D01*
X023832Y000992D01*
X023904Y001015D01*
X023972Y001049D01*
X024033Y001094D01*
X024086Y001147D01*
X024131Y001208D01*
X024165Y001276D01*
X024188Y001348D01*
X024200Y001422D01*
X024200Y001720D01*
X023720Y001720D01*
X023720Y001720D01*
X023720Y000980D01*
X023720Y001720D01*
X023720Y001720D01*
X023720Y001720D01*
X023240Y001720D01*
X023240Y001422D01*
X023252Y001348D01*
X023275Y001276D01*
X023309Y001208D01*
X023354Y001147D01*
X023242Y001413D02*
X023198Y001413D01*
X023200Y001651D02*
X023240Y001651D01*
X023240Y001890D02*
X023200Y001890D01*
X023177Y002128D02*
X023263Y002128D01*
X023720Y001651D02*
X023720Y001651D01*
X023720Y001413D02*
X023720Y001413D01*
X023720Y001174D02*
X023720Y001174D01*
X024106Y001174D02*
X024334Y001174D01*
X024354Y001147D02*
X024407Y001094D01*
X024468Y001049D01*
X024536Y001015D01*
X024608Y000992D01*
X024682Y000980D01*
X024720Y000980D01*
X024758Y000980D01*
X024832Y000992D01*
X024904Y001015D01*
X024972Y001049D01*
X025033Y001094D01*
X025086Y001147D01*
X025131Y001208D01*
X025165Y001276D01*
X025188Y001348D01*
X025200Y001422D01*
X025200Y001720D01*
X025200Y002018D01*
X025188Y002092D01*
X025165Y002164D01*
X025131Y002232D01*
X025086Y002293D01*
X025033Y002346D01*
X024972Y002391D01*
X024904Y002425D01*
X024832Y002448D01*
X024758Y002460D01*
X024720Y002460D01*
X024720Y001720D01*
X024720Y001720D01*
X025200Y001720D01*
X024720Y001720D01*
X024720Y001720D01*
X024720Y001720D01*
X024240Y001720D01*
X024240Y002018D01*
X024252Y002092D01*
X024275Y002164D01*
X024309Y002232D01*
X024354Y002293D01*
X024407Y002346D01*
X024468Y002391D01*
X024536Y002425D01*
X024608Y002448D01*
X024682Y002460D01*
X024720Y002460D01*
X024720Y001720D01*
X024720Y000980D01*
X024720Y001720D01*
X024720Y001720D01*
X024240Y001720D01*
X024240Y001422D01*
X024252Y001348D01*
X024275Y001276D01*
X024309Y001208D01*
X024354Y001147D01*
X024242Y001413D02*
X024198Y001413D01*
X024200Y001651D02*
X024240Y001651D01*
X024240Y001890D02*
X024200Y001890D01*
X024177Y002128D02*
X024263Y002128D01*
X024435Y002367D02*
X024005Y002367D01*
X024720Y002367D02*
X024720Y002367D01*
X024720Y002128D02*
X024720Y002128D01*
X024720Y001890D02*
X024720Y001890D01*
X024720Y001651D02*
X024720Y001651D01*
X024720Y001413D02*
X024720Y001413D01*
X024720Y001174D02*
X024720Y001174D01*
X025106Y001174D02*
X025334Y001174D01*
X025354Y001147D02*
X025309Y001208D01*
X025275Y001276D01*
X025252Y001348D01*
X025240Y001422D01*
X025240Y001720D01*
X025720Y001720D01*
X025720Y001720D01*
X025720Y000980D01*
X025682Y000980D01*
X025608Y000992D01*
X025536Y001015D01*
X025468Y001049D01*
X025407Y001094D01*
X025354Y001147D01*
X025242Y001413D02*
X025198Y001413D01*
X025200Y001651D02*
X025240Y001651D01*
X025240Y001890D02*
X025200Y001890D01*
X025177Y002128D02*
X025263Y002128D01*
X025435Y002367D02*
X025005Y002367D01*
X025720Y002367D02*
X025720Y002367D01*
X025720Y002128D02*
X025720Y002128D01*
X025720Y001890D02*
X025720Y001890D01*
X025720Y001651D02*
X025720Y001651D01*
X025720Y001413D02*
X025720Y001413D01*
X025720Y001174D02*
X025720Y001174D01*
X028635Y002844D02*
X057200Y002844D01*
X057200Y003082D02*
X028874Y003082D01*
X037220Y005220D02*
X039120Y005220D01*
X027220Y009720D02*
X025720Y009720D01*
X031178Y013576D02*
X034058Y013576D01*
X034296Y013815D02*
X031180Y013815D01*
X031100Y014053D02*
X034535Y014053D01*
X034773Y014292D02*
X033078Y014292D01*
X033075Y014289D02*
X033136Y014349D01*
X033186Y014419D01*
X033225Y014495D01*
X033252Y014577D01*
X033265Y014661D01*
X033265Y014704D01*
X032720Y014704D01*
X032720Y014159D01*
X032763Y014159D01*
X032848Y014173D01*
X032929Y014199D01*
X033006Y014238D01*
X033075Y014289D01*
X033236Y014530D02*
X035012Y014530D01*
X035250Y014769D02*
X033262Y014769D01*
X033265Y014747D02*
X033252Y014832D01*
X033225Y014913D01*
X033186Y014990D01*
X033136Y015059D01*
X033075Y015120D01*
X033006Y015170D01*
X032929Y015209D01*
X032848Y015236D01*
X032763Y015249D01*
X032720Y015249D01*
X032720Y014704D01*
X032720Y014704D01*
X032720Y014159D01*
X032677Y014159D01*
X032592Y014173D01*
X032511Y014199D01*
X032434Y014238D01*
X032365Y014289D01*
X032304Y014349D01*
X032254Y014419D01*
X032215Y014495D01*
X032188Y014577D01*
X032175Y014661D01*
X032175Y014704D01*
X032720Y014704D01*
X032720Y014704D01*
X032720Y014704D01*
X032720Y014720D01*
X032720Y014704D02*
X032720Y015249D01*
X032677Y015249D01*
X032592Y015236D01*
X032511Y015209D01*
X032434Y015170D01*
X032365Y015120D01*
X032304Y015059D01*
X032254Y014990D01*
X032215Y014913D01*
X032188Y014832D01*
X032175Y014747D01*
X032175Y014704D01*
X032720Y014704D01*
X033265Y014704D01*
X033265Y014747D01*
X033174Y015007D02*
X035489Y015007D01*
X035727Y015246D02*
X032786Y015246D01*
X032720Y015246D02*
X032720Y015246D01*
X032654Y015246D02*
X030995Y015246D01*
X030865Y015007D02*
X032266Y015007D01*
X032178Y014769D02*
X030958Y014769D01*
X030960Y014720D02*
X030220Y014720D01*
X030220Y014720D01*
X030220Y015020D01*
X030220Y015020D01*
X030220Y014720D01*
X030220Y014720D01*
X030960Y014720D01*
X030922Y014530D02*
X032204Y014530D01*
X032362Y014292D02*
X030898Y014292D01*
X030220Y014420D02*
X030220Y014720D01*
X030220Y014720D01*
X030220Y014720D01*
X030220Y014420D01*
X030220Y014420D01*
X030220Y014530D02*
X030220Y014530D01*
X030220Y014769D02*
X030220Y014769D01*
X030220Y015007D02*
X030220Y015007D01*
X031140Y015484D02*
X035966Y015484D01*
X036204Y015723D02*
X031180Y015723D01*
X031138Y015961D02*
X036443Y015961D01*
X036681Y016200D02*
X030990Y016200D01*
X031121Y016438D02*
X036920Y016438D01*
X037158Y016677D02*
X031180Y016677D01*
X031157Y016915D02*
X037397Y016915D01*
X037635Y017154D02*
X031036Y017154D01*
X031102Y017392D02*
X037874Y017392D01*
X034403Y018585D02*
X031180Y018585D01*
X031180Y018823D02*
X034350Y018823D01*
X034396Y019062D02*
X031096Y019062D01*
X031050Y019300D02*
X034583Y019300D01*
X034389Y020016D02*
X033398Y020016D01*
X033540Y020254D02*
X034211Y020254D01*
X034130Y020493D02*
X033540Y020493D01*
X033540Y020731D02*
X033962Y020731D01*
X033694Y020970D02*
X033540Y020970D01*
X032720Y020720D02*
X030220Y020720D01*
X029458Y021208D02*
X028500Y021208D01*
X028261Y020970D02*
X029306Y020970D01*
X029260Y020731D02*
X028180Y020731D01*
X028143Y020493D02*
X029297Y020493D01*
X031115Y020016D02*
X032042Y020016D01*
X032064Y021447D02*
X028738Y021447D01*
X027870Y022162D02*
X027780Y022162D01*
X027780Y022401D02*
X028109Y022401D01*
X028347Y022639D02*
X027780Y022639D01*
X027220Y022220D02*
X026220Y021220D01*
X026220Y020220D01*
X026720Y019720D01*
X027220Y019720D01*
X027220Y018720D02*
X026720Y018720D01*
X025220Y020220D01*
X025220Y021220D01*
X026220Y022220D01*
X026220Y026720D01*
X025660Y025978D02*
X025571Y025978D01*
X025660Y025740D02*
X022780Y025740D01*
X022780Y025978D02*
X024869Y025978D01*
X024564Y026217D02*
X022780Y026217D01*
X022780Y026455D02*
X024442Y026455D01*
X024400Y026694D02*
X022780Y026694D01*
X022780Y026932D02*
X024420Y026932D01*
X024519Y027171D02*
X022910Y027171D01*
X022780Y025501D02*
X025660Y025501D01*
X025660Y025263D02*
X022969Y025263D01*
X023208Y025024D02*
X025660Y025024D01*
X025660Y024786D02*
X023446Y024786D01*
X023685Y024547D02*
X025660Y024547D01*
X025660Y024309D02*
X023923Y024309D01*
X024162Y024070D02*
X025660Y024070D01*
X025660Y023832D02*
X024400Y023832D01*
X024639Y023593D02*
X025660Y023593D01*
X024604Y022162D02*
X022652Y022162D01*
X022540Y021924D02*
X025026Y021924D01*
X024893Y021685D02*
X022540Y021685D01*
X022540Y021447D02*
X024708Y021447D01*
X024660Y021208D02*
X022540Y021208D01*
X022540Y020970D02*
X024660Y020970D01*
X024660Y020731D02*
X022540Y020731D01*
X022540Y020493D02*
X024660Y020493D01*
X024660Y020254D02*
X022676Y020254D01*
X022799Y020016D02*
X024699Y020016D01*
X024871Y019777D02*
X022850Y019777D01*
X022847Y019539D02*
X025110Y019539D01*
X024655Y019300D02*
X022748Y019300D01*
X022655Y019062D02*
X024485Y019062D01*
X024410Y018823D02*
X022893Y018823D01*
X023132Y018585D02*
X024410Y018585D01*
X024498Y018346D02*
X023370Y018346D01*
X023609Y018108D02*
X024660Y018108D01*
X024660Y017869D02*
X023847Y017869D01*
X024086Y017631D02*
X024660Y017631D01*
X024660Y017392D02*
X024324Y017392D01*
X024563Y017154D02*
X024660Y017154D01*
X025220Y017220D02*
X025220Y018720D01*
X025220Y017220D02*
X026720Y015720D01*
X027220Y015720D01*
X032720Y015007D02*
X032720Y015007D01*
X032720Y014769D02*
X032720Y014769D01*
X032720Y014704D02*
X032720Y014704D01*
X032720Y014530D02*
X032720Y014530D01*
X032720Y014292D02*
X032720Y014292D01*
X021980Y019720D02*
X021980Y022720D01*
X021384Y023355D02*
X021316Y023355D01*
X020124Y023355D02*
X019603Y023355D01*
X019460Y023355D02*
X019460Y023355D01*
X019317Y023355D02*
X016280Y023355D01*
X016280Y023116D02*
X018945Y023116D01*
X018829Y022878D02*
X016280Y022878D01*
X016280Y022639D02*
X018815Y022639D01*
X018894Y022401D02*
X016280Y022401D01*
X016292Y022162D02*
X019126Y022162D01*
X019460Y022878D02*
X019460Y022878D01*
X019460Y023116D02*
X019460Y023116D01*
X021071Y021924D02*
X021420Y021924D01*
X027220Y022220D02*
X027220Y026720D01*
X027780Y025978D02*
X027869Y025978D01*
X027780Y025740D02*
X031173Y025740D01*
X032132Y024547D02*
X032784Y024547D01*
X036220Y026220D02*
X036220Y026220D01*
X035001Y027648D02*
X034919Y027648D01*
X036107Y028125D02*
X042679Y028125D01*
X042673Y028110D02*
X042651Y028028D01*
X042640Y027944D01*
X042640Y027901D01*
X042640Y027858D01*
X042651Y027774D01*
X042673Y027692D01*
X042706Y027613D01*
X042748Y027539D01*
X042800Y027472D01*
X042861Y027411D01*
X042928Y027359D01*
X043002Y027317D01*
X043081Y027284D01*
X043163Y027262D01*
X043247Y027251D01*
X043720Y027251D01*
X044193Y027251D01*
X044277Y027262D01*
X044359Y027284D01*
X044438Y027317D01*
X044512Y027359D01*
X044579Y027411D01*
X044640Y027472D01*
X044692Y027539D01*
X044734Y027613D01*
X044767Y027692D01*
X044789Y027774D01*
X044800Y027858D01*
X044800Y027901D01*
X043720Y027901D01*
X043720Y027251D01*
X043720Y027901D01*
X043720Y027901D01*
X042640Y027901D01*
X043720Y027901D01*
X043720Y027901D01*
X043720Y027901D01*
X044800Y027901D01*
X044800Y027944D01*
X044789Y028028D01*
X044767Y028110D01*
X044734Y028189D01*
X044692Y028263D01*
X044640Y028331D01*
X044579Y028391D01*
X044512Y028443D01*
X044438Y028485D01*
X044359Y028518D01*
X044277Y028540D01*
X044193Y028551D01*
X043720Y028551D01*
X043247Y028551D01*
X043163Y028540D01*
X043081Y028518D01*
X043002Y028485D01*
X042928Y028443D01*
X042861Y028391D01*
X042800Y028331D01*
X042748Y028263D01*
X042706Y028189D01*
X042673Y028110D01*
X042640Y027886D02*
X042325Y027886D01*
X042563Y027648D02*
X042691Y027648D01*
X042665Y027409D02*
X042864Y027409D01*
X042700Y027171D02*
X057200Y027171D01*
X057200Y027409D02*
X044576Y027409D01*
X044749Y027648D02*
X057200Y027648D01*
X057200Y027886D02*
X044800Y027886D01*
X044761Y028125D02*
X057200Y028125D01*
X057200Y028363D02*
X044607Y028363D01*
X043720Y028363D02*
X043720Y028363D01*
X043720Y028551D02*
X043720Y027901D01*
X043720Y027901D01*
X043720Y028551D01*
X043720Y028125D02*
X043720Y028125D01*
X043720Y027886D02*
X043720Y027886D01*
X043720Y027648D02*
X043720Y027648D01*
X043720Y027409D02*
X043720Y027409D01*
X042700Y026932D02*
X057200Y026932D01*
X057200Y026694D02*
X042700Y026694D01*
X042700Y026455D02*
X057200Y026455D01*
X057200Y028602D02*
X035630Y028602D01*
X035869Y028363D02*
X042833Y028363D01*
X041336Y027886D02*
X036846Y027886D01*
X034872Y028840D02*
X057200Y028840D01*
X057200Y029079D02*
X034780Y029079D01*
X034780Y029317D02*
X057200Y029317D01*
X057200Y029556D02*
X034676Y029556D01*
X042700Y026217D02*
X042737Y026217D01*
X034220Y022220D02*
X033940Y021940D01*
X033940Y021500D01*
X033220Y022220D01*
X031720Y022220D01*
X033940Y021500D02*
X034940Y020610D01*
X007845Y007137D02*
X005691Y007137D01*
X005694Y007134D02*
X005634Y007194D01*
X005566Y007246D01*
X005492Y007288D01*
X005414Y007321D01*
X005331Y007343D01*
X005247Y007354D01*
X005204Y007354D01*
X005162Y007354D01*
X005077Y007343D01*
X004995Y007321D01*
X004916Y007288D01*
X004842Y007246D01*
X004775Y007194D01*
X004715Y007134D01*
X004663Y007066D01*
X004620Y006992D01*
X004587Y006914D01*
X004565Y006831D01*
X004554Y006747D01*
X004554Y006704D01*
X005204Y006704D01*
X005204Y006704D01*
X005204Y008220D01*
X005204Y007354D02*
X005204Y006704D01*
X005204Y006704D01*
X005204Y006704D01*
X005204Y007354D01*
X005204Y007137D02*
X005204Y007137D01*
X005204Y006898D02*
X005204Y006898D01*
X005204Y006704D02*
X005854Y006704D01*
X005854Y006747D01*
X005843Y006831D01*
X005821Y006914D01*
X005788Y006992D01*
X005746Y007066D01*
X005694Y007134D01*
X005825Y006898D02*
X007606Y006898D01*
X007368Y006660D02*
X005854Y006660D01*
X005790Y006421D02*
X007129Y006421D01*
X004717Y007137D02*
X003998Y007137D01*
X004097Y006898D02*
X004583Y006898D01*
X004555Y006660D02*
X004106Y006660D01*
X004060Y006421D02*
X004618Y006421D01*
X003236Y005720D02*
X003236Y004736D01*
X003766Y004036D02*
X010474Y004036D01*
X010533Y004179D02*
X010410Y003881D01*
X010410Y003559D02*
X010533Y003261D01*
X010712Y003082D02*
X000740Y003082D01*
X000740Y002844D02*
X015305Y002844D01*
X015543Y002605D02*
X000740Y002605D01*
X000740Y002367D02*
X015782Y002367D01*
X014712Y003082D02*
X011728Y003082D01*
X010629Y004275D02*
X005662Y004275D01*
X005816Y004513D02*
X010660Y004513D01*
X010660Y004306D02*
X010533Y004179D01*
X010543Y004752D02*
X005854Y004752D01*
D25*
X030220Y012720D02*
X030236Y012736D01*
X032720Y012736D01*
X032736Y012720D01*
X034220Y012720D01*
X038720Y017220D01*
X038720Y021720D01*
X038220Y022220D01*
X037220Y023220D01*
X037220Y024220D01*
X036220Y025220D01*
D26*
X032720Y020720D03*
M02*
